<?xml version="1.0" standalone="no"?>
<!DOCTYPE svg PUBLIC "-//W3C//DTD SVG 1.1//EN" "http://www.w3.org/Graphics/SVG/1.1/DTD/svg11.dtd" >
<svg xmlns="http://www.w3.org/2000/svg">
<metadata>
<json>
<![CDATA[
{
	"fontFamily": "dps-icon",
	"majorVersion": 1,
	"minorVersion": 0,
	"version": "Version 1.0",
	"fontId": "dps-icon",
	"psName": "dps-icon",
	"subFamily": "Regular",
	"fullName": "dps-icon",
	"description": "Font generated by IcoMoon."
}
]]>
</json>
</metadata>
<defs>
<font id="dps-icon" horiz-adv-x="1024">
<font-face units-per-em="1024" ascent="960" descent="-64" />
<missing-glyph horiz-adv-x="1024" />
<glyph unicode="&#x20;" horiz-adv-x="512" d="" />
<glyph unicode="&#xe900;" glyph-name="arrow-down" data-tags="arrow-down" d="M807.562 657.841c16.417 16.417 52.542 19.703 72.247-3.286 26.277-32.84 13.137-65.681-3.286-78.818l-338.255-315.265c-16.417-16.417-42.691-16.417-59.111 0l-334.968 311.979c-16.417 16.417-32.84 52.542 0 85.383 22.989 22.989 52.542 16.417 68.971 3.286l295.562-282.425 298.848 279.139z" />
<glyph unicode="&#xe901;" glyph-name="arrow-left" data-tags="arrow-left" d="M704 172.8c16-16 19.2-51.2-3.2-70.4-32-25.6-64-12.8-76.8 3.2l-307.2 326.4c-16 16-16 41.6 0 57.6l307.2 329.6c16 16 51.2 32 83.2 0 22.4-22.4 16-51.2 3.2-67.2l-275.2-288 268.8-291.2z" />
<glyph unicode="&#xe902;" glyph-name="arrow-right" data-tags="arrow-right" d="M320 172.8c-16-16-19.2-51.2 3.2-70.4 32-25.6 64-12.8 76.8 3.2l307.2 329.6c16 16 16 41.6 0 57.6l-304 326.4c-16 16-51.2 32-83.2 0-22.4-19.2-19.2-51.2-3.2-67.2l275.2-288-272-291.2z" />
<glyph unicode="&#xe903;" glyph-name="arrow-up" data-tags="arrow-up" d="M800 268.8c16-16 51.2-19.2 70.4 3.2 25.6 32 12.8 64-3.2 76.8l-326.4 307.2c-16 16-41.6 16-57.6 0l-329.6-304c-16-16-32-51.2 0-83.2 22.4-22.4 51.2-16 67.2-3.2l288 275.2 291.2-272z" />
<glyph unicode="&#xe904;" glyph-name="back" data-tags="back" d="M1004.8 38.4c0 0-9.6-25.6-22.4 0 0 0-14.4 406.4-520 310.4v-155.2c0 0 6.4-112-76.8-28.8l-353.6 305.6c0 0-75.2 40 4.8 96l356.8 307.2c0 0 67.2 59.2 67.2-24v-148.8c0 0 683.2 6.4 544-662.4z" />
<glyph unicode="&#xe905;" glyph-name="calendar" data-tags="calendar" d="M772.8 430.4h-260.8v-267.2h260.8v267.2zM720 972.8v-107.2h-416v107.2h-104v-107.2h-52.8c-57.6 0-104-48-104-107.2v-702.4c0-59.2 48-107.2 104-107.2h728c57.6 0 104 48 104 107.2v702.4c0 59.2-46.4 107.2-104 107.2h-52.8v107.2h-102.4zM876.8 56h-729.6v542.4h728v-542.4h1.6z" />
<glyph unicode="&#xe906;" glyph-name="caret-bottom" data-tags="caret-bottom" d="M342.4 716.8v0h556.8c9.6 0 19.2-3.2 25.6-12.8 12.8-16 12.8-41.6 0-57.6l-384-432c-12.8-16-35.2-16-51.2 0l-384 432c-9.6 9.6-16 19.2-16 32 0 19.2 16 38.4 35.2 38.4h217.6z" />
<glyph unicode="&#xe907;" glyph-name="caret-left" data-tags="caret-left" d="M768 291.2v-217.6c0-19.2-19.2-35.2-38.4-35.2-12.8 0-22.4 3.2-28.8 12.8l-432 384c-16 12.8-16 35.2 0 51.2v0 0l432 384c16 12.8 41.6 12.8 57.6 0 6.4-6.4 9.6-16 9.6-22.4v-556.8z" />
<glyph unicode="&#xe908;" glyph-name="caret-right" data-tags="caret-right" d="M256 291.2v0 556.8c0 9.6 3.2 19.2 12.8 25.6 16 12.8 41.6 12.8 57.6 0l432-384c16-12.8 16-35.2 0-51.2l-432-384c-6.4-6.4-19.2-12.8-28.8-12.8-22.4 0-38.4 16-38.4 35.2v214.4h-3.2z" />
<glyph unicode="&#xe909;" glyph-name="caret-top" data-tags="caret-top" d="M342.4 204.8h-217.6c-19.2 0-35.2 19.2-35.2 38.4 0 12.8 3.2 22.4 12.8 28.8l384 432c12.8 16 35.2 16 51.2 0v0 0l384-432c12.8-16 12.8-41.6 0-57.6-6.4-6.4-16-12.8-25.6-12.8h-553.6v3.2z" />
<glyph unicode="&#xe90a;" glyph-name="cellphone" data-tags="cellphone" d="M728 972.8h-432c-65.6 0-118.4-52.8-118.4-118.4v-787.2c0-65.6 52.8-118.4 118.4-118.4h433.6c65.6 0 118.4 52.8 118.4 118.4v787.2c-1.6 65.6-54.4 118.4-120 118.4zM472 932.8h78.4c11.2 0 19.2-9.6 19.2-19.2 0-11.2-9.6-19.2-19.2-19.2h-78.4c-11.2 0-19.2 9.6-19.2 19.2 0 11.2 9.6 19.2 19.2 19.2zM512-3.2c-27.2 0-49.6 22.4-49.6 49.6s22.4 49.6 49.6 49.6c27.2 0 49.6-22.4 49.6-49.6s-22.4-49.6-49.6-49.6zM768 164.8c0-11.2-9.6-19.2-19.2-19.2h-473.6c-11.2 0-19.2 9.6-19.2 19.2v668.8c0 11.2 9.6 19.2 19.2 19.2h472c11.2 0 19.2-9.6 19.2-19.2v-668.8z" />
<glyph unicode="&#xe90b;" glyph-name="clear" data-tags="clear" d="M510.4 640c-35.2 4.8-113.6-75.2-113.6-75.2l216-248c0 0 94.4 64 99.2 88 3.2 24-166.4 232-201.6 235.2zM272 507.2c-48-12.8-104-14.4-104-14.4l288-364.8 128 166.4-208 241.6c0-1.6-72-20.8-104-28.8zM601.6 603.2l86.4-100.8 89.6 99.2-57.6 70.4zM873.6 822.4v0c-92.8 94.4-220.8 150.4-363.2 150.4-139.2 0-265.6-56-358.4-147.2l-3.2-3.2c-92.8-91.2-148.8-220.8-148.8-361.6 0-142.4 56-270.4 148.8-363.2v0c92.8-92.8 220.8-150.4 361.6-150.4 139.2 0 267.2 56 360 147.2l3.2 3.2c92.8 94.4 150.4 222.4 150.4 363.2s-57.6 270.4-150.4 361.6zM804.8 166.4l-3.2-3.2c-73.6-72-176-118.4-291.2-118.4s-217.6 48-292.8 121.6c-75.2 75.2-121.6 179.2-121.6 294.4 0 113.6 46.4 217.6 121.6 292.8l3.2 3.2c73.6 73.6 177.6 120 289.6 120 115.2 0 219.2-46.4 294.4-121.6v0c75.2-75.2 123.2-179.2 123.2-294.4s-48-219.2-123.2-294.4z" />
<glyph unicode="&#xe90c;" glyph-name="computer" data-tags="computer" d="M814.4 68.8v0h-132.8c-4.8 54.4-49.6 99.2-107.2 99.2h-128c-59.2 0-107.2-48-107.2-105.6v-24h475.2c8 0 12.8 6.4 12.8 16 0 8-4.8 14.4-12.8 14.4zM899.2 68.8v0h-27.2c-4.8 0-9.6-3.2-11.2-6.4s-1.6-6.4-1.6-8c0-9.6 4.8-16 12.8-16h27.2c8 0 12.8 6.4 12.8 16 0 8-6.4 14.4-12.8 14.4zM931.2 884.8h-838.4c-51.2 0-92.8-41.6-92.8-92.8v-504c0-51.2 41.6-92.8 92.8-92.8h836.8c51.2 0 92.8 41.6 92.8 92.8v504c1.6 51.2-40 92.8-91.2 92.8zM108.8 827.2v0h1.6c0 0 0 0-1.6 0zM145.6 580.8v0c-3.2-1.6-8-3.2-11.2-3.2s-8 1.6-11.2 3.2c-6.4 3.2-9.6 9.6-9.6 17.6l-1.6 228.8h43.2l1.6-228.8c0-8-4.8-14.4-11.2-17.6zM212.8 660.8v0c0 0 0 0 0 0-12.8 0-20.8 9.6-22.4 20.8l-1.6 145.6h43.2c0-48 0-97.6 1.6-145.6 1.6-11.2-8-20.8-20.8-20.8z" />
<glyph unicode="&#xe90d;" glyph-name="correct" data-tags="correct" d="M840 854.4v0c-100.8 84.8-233.6 129.6-374.4 116.8-139.2-12.8-260.8-78.4-344-177.6l-3.2-3.2c-84.8-100.8-129.6-233.6-116.8-374.4s80-264 180.8-348.8v0c100.8-83.2 232-129.6 372.8-116.8 139.2 12.8 260.8 80 345.6 177.6l3.2 3.2c84.8 100.8 129.6 233.6 118.4 374.4-12.8 140.8-81.6 264-182.4 348.8zM771.2 571.2l-241.6-284.8c-16-19.2-44.8-22.4-64-6.4l-1.6 1.6-147.2 121.6c-19.2 16-22.4 44.8-6.4 64s44.8 22.4 64 6.4l113.6-96 212.8 251.2c16 19.2 44.8 20.8 64 4.8 20.8-14.4 22.4-43.2 6.4-62.4z" />
<glyph unicode="&#xe90e;" glyph-name="d-caret" data-tags="d-caret" d="M259.2 492.8h499.2c6.4 0 12.8 3.2 16 6.4 9.6 9.6 9.6 28.8 0 38.4l-249.6 304c-9.6 9.6-22.4 9.6-32 0l-249.6-300.8c-6.4-6.4-6.4-12.8-6.4-22.4-3.2-12.8 9.6-25.6 22.4-25.6zM755.2 428.8h-496c-12.8 0-22.4-12.8-22.4-28.8 0-9.6 3.2-16 6.4-22.4l249.6-300.8c9.6-9.6 22.4-9.6 32 0v0l249.6 304c9.6 9.6 9.6 28.8 0 38.4-6.4 6.4-12.8 9.6-19.2 9.6z" />
<glyph unicode="&#xe90f;" glyph-name="data-chart1" data-tags="data-chart1" d="M985.6 80h-910.4v798.4c0 20.8-17.6 38.4-38.4 38.4s-36.8-17.6-36.8-38.4c0 0 0-792 0-822.4s25.6-51.2 44.8-51.2c12.8 0 942.4 0 942.4 0 20.8 0 38.4 17.6 38.4 38.4s-19.2 36.8-40 36.8zM190.4 118.4c20.8 0 38.4 17.6 38.4 38.4v384l212.8 156.8 166.4-364.8h278.4l40-91.2c8-19.2 30.4-27.2 49.6-19.2s27.2 30.4 19.2 49.6l-60.8 136h-278.4l-185.6 404.8-318.4-233.6v-422.4c0-20.8 16-38.4 38.4-38.4z" />
<glyph unicode="&#xe910;" glyph-name="data-assets-direct" data-tags="data-assets-direct" d="M17.6 246.4v-296h988.8v296h-988.8zM585.6 51.2h-425.6c-27.2 0-49.6 22.4-49.6 49.6s22.4 49.6 49.6 49.6h425.6c27.2 0 51.2-22.4 49.6-49.6 0-27.2-22.4-49.6-49.6-49.6zM857.6 48c-24 0-49.6 19.2-49.6 49.6s20.8 49.6 49.6 49.6c24 0 49.6-19.2 49.6-49.6s-24-49.6-49.6-49.6zM491.2 278.4c-217.6 0-310.4 76.8-310.4 236.8 0 132.8 104 270.4 228.8 313.6h160c126.4-43.2 228.8-180.8 228.8-313.6 3.2-160-89.6-236.8-307.2-236.8v0 0 0zM577.6 539.2v0c14.4 0 25.6 11.2 25.6 25.6s-11.2 27.2-25.6 27.2v0h-52.8v1.6l62.4 62.4c9.6 11.2 4.8 20.8-4.8 32s-27.2 12.8-35.2 3.2l-56-54.4-57.6 57.6c-8 8-22.4 4.8-32-4.8s-12.8-24-4.8-32l59.2-59.2c-1.6-1.6-1.6-3.2-1.6-4.8h-48c-14.4 0-25.6-11.2-25.6-25.6s11.2-25.6 25.6-25.6v0 0h51.2v-25.6h-52.8c-14.4 0-25.6-11.2-25.6-25.6s11.2-25.6 25.6-25.6v0 0h52.8v-25.6c0-1.6-1.6-4.8-1.6-6.4 0-19.2 14.4-32 32-32 19.2 0 32 14.4 32 32 0 1.6 0 4.8-1.6 6.4v0 25.6h52.8c14.4 0 25.6 11.2 25.6 25.6s-11.2 25.6-25.6 25.6v0h-51.2v25.6h52.8v-3.2h4.8zM611.2 924.8l-48-59.2h-156.8l-48 59.2c0 0-4.8 4.8-4.8 12.8s4.8 14.4 12.8 19.2c8 3.2 65.6 14.4 118.4 14.4 56 0 112-11.2 118.4-14.4 8-3.2 12.8-9.6 12.8-19.2 1.6-6.4-4.8-12.8-4.8-12.8v0z" />
<glyph unicode="&#xe911;" glyph-name="data-chart3" data-tags="data-chart3" d="M985.6 80h-910.4v800c0 20.8-17.6 38.4-38.4 38.4s-36.8-17.6-36.8-38.4c0 0 0-793.6 0-824s25.6-51.2 44.8-51.2c12.8 0 942.4 0 942.4 0 20.8 0 38.4 17.6 38.4 38.4s-19.2 36.8-40 36.8zM251.2 244.8c54.4 0 99.2 44.8 99.2 99.2 0 19.2-4.8 36.8-14.4 52.8l80 89.6c11.2-3.2 22.4-6.4 33.6-6.4 9.6 0 17.6 1.6 25.6 3.2l94.4-134.4c-14.4-17.6-22.4-38.4-22.4-62.4 0-54.4 44.8-99.2 99.2-99.2s99.2 44.8 99.2 99.2c0 28.8-12.8 54.4-32 72l116.8 246.4c3.2 0 8 0 11.2 0 54.4 0 99.2 44.8 99.2 99.2s-44.8 99.2-99.2 99.2c-54.4 0-99.2-44.8-99.2-99.2 0-28.8 12.8-54.4 32-72l-118.4-248c-3.2 0-8 0-11.2 0-9.6 0-19.2-1.6-27.2-3.2l-92.8 134.4c14.4 17.6 22.4 38.4 22.4 62.4 0 54.4-44.8 99.2-99.2 99.2s-99.2-44.8-99.2-99.2c0-19.2 4.8-36.8 14.4-51.2l-75.2-91.2c-11.2 4.8-24 6.4-36.8 6.4-54.4 0-99.2-44.8-99.2-99.2 1.6-52.8 44.8-97.6 99.2-97.6z" />
<glyph unicode="&#xe912;" glyph-name="data-chart4" data-tags="data-chart4" d="M1011.2 643.2c-22.4 65.6-60.8 128-108.8 177.6-163.2 171.2-427.2 200-627.2 75.2l270.4-403.2 465.6 150.4zM185.6 920c-24-16-46.4-32-65.6-51.2-52.8-48-92.8-107.2-118.4-172.8l457.6-177.6-273.6 401.6zM998.4 576l-467.2-147.2-457.6 176c-70.4-172.8-32-369.6 99.2-504 187.2-193.6 497.6-204.8 696-22.4 139.2 126.4 190.4 321.6 129.6 497.6v0z" />
<glyph unicode="&#xe913;" glyph-name="database" data-tags="database" d="M113.6 772.8c27.2-59.2 97.6-88 156.8-107.2 62.4-19.2 126.4-28.8 190.4-32 115.2-6.4 244.8 4.8 352 56 51.2 24 121.6 73.6 97.6 139.2-20.8 59.2-97.6 91.2-152 108.8-113.6 35.2-241.6 43.2-360 28.8-67.2-9.6-137.6-24-200-56-44.8-24-113.6-76.8-84.8-137.6 19.2-41.6-1.6 3.2 0 0zM115.2 425.6c38.4-84.8 168-113.6 248-126.4 84.8-14.4 171.2-16 256-6.4 91.2 11.2 214.4 33.6 273.6 108.8 33.6 41.6 20.8 104 20.8 153.6 0 28.8 0 59.2 0 88 0 8-4.8 64-1.6 68.8-6.4-8-9.6-20.8-19.2-30.4-14.4-12.8-33.6-24-49.6-32-35.2-19.2-75.2-30.4-113.6-40-73.6-19.2-150.4-28.8-225.6-27.2-72 1.6-144 9.6-214.4 27.2-35.2 9.6-70.4 20.8-102.4 35.2-17.6 8-35.2 17.6-51.2 30.4-6.4 4.8-14.4 9.6-19.2 17.6-1.6 3.2-9.6 19.2-9.6 20.8 0-51.2 0-104 0-155.2 1.6-112-1.6-107.2 8-132.8 3.2-8-3.2 4.8 0 0zM915.2 307.2c0 9.6-6.4 62.4-1.6 68.8-6.4-8-9.6-20.8-19.2-30.4-14.4-12.8-33.6-24-49.6-32-36.8-17.6-75.2-30.4-113.6-40-73.6-19.2-150.4-28.8-225.6-27.2-72 1.6-144 9.6-214.4 27.2-35.2 8-70.4 20.8-102.4 35.2-17.6 8-35.2 17.6-51.2 30.4-6.4 4.8-14.4 9.6-19.2 17.6-3.2 3.2-8 19.2-9.6 20.8 0-54.4 0-107.2 0-161.6 0-43.2-11.2-100.8 12.8-139.2 43.2-68.8 142.4-94.4 216-108.8 80-16 164.8-20.8 246.4-14.4 84.8 6.4 177.6 22.4 252.8 65.6 38.4 22.4 75.2 54.4 78.4 100.8 4.8 60.8 0 124.8 0 187.2z" />
<glyph unicode="&#xe914;" glyph-name="delete" data-tags="delete" d="M897.6 716.8c0-16 0-30.4 0-44.8 0-195.2 0-390.4 0-585.6 0-35.2-8-65.6-28.8-94.4-17.6-22.4-38.4-38.4-67.2-41.6-3.2 0-6.4 0-11.2 0-184 0-368 0-552 0-35.2 0-60.8 14.4-81.6 41.6-22.4 28.8-30.4 60.8-30.4 96 0 208 0 416 0 624 0 1.6 0 3.2 0 6.4-3.2 0-4.8 0-8 0-17.6 0-36.8 0-54.4 0-16 0-24 8-24 24 0 11.2 0 24 0 35.2 0 17.6 8 25.6 24 25.6 65.6 0 131.2 0 195.2 0 6.4 0 8 1.6 9.6 6.4 12.8 32 27.2 65.6 40 97.6 14.4 35.2 40 56 75.2 64 11.2 1.6 17.6 1.6 25.6 1.6 68.8 0 136 0 204.8 0 41.6 0 78.4-24 96-64 14.4-33.6 28.8-67.2 41.6-100.8 1.6-4.8 4.8-6.4 9.6-6.4 65.6 0 129.6 0 195.2 0 19.2 0 25.6-6.4 25.6-25.6 0-11.2 0-24 0-35.2 0-14.4-8-22.4-22.4-22.4-17.6 0-36.8 0-54.4 0-3.2-1.6-4.8-1.6-8-1.6zM726.4 376c0 78.4 0 155.2 0 233.6 0 12.8-8 22.4-22.4 22.4s-27.2 0-41.6 0c-14.4 0-22.4-8-22.4-22.4 0-155.2 0-310.4 0-465.6 0-14.4 8-22.4 22.4-22.4 12.8 0 25.6 0 40 0 16 0 24 8 24 24 0 75.2 0 152 0 230.4zM384 376c0 76.8 0 155.2 0 232 0 16-8 24-24 24-12.8 0-25.6 0-38.4 0-16 0-24-8-24-24 0-155.2 0-310.4 0-464 0-16 8-24 24-24 12.8 0 24 0 36.8 0 17.6 0 25.6 8 25.6 25.6 0 76.8 0 153.6 0 230.4zM468.8 376c0-76.8 0-155.2 0-232 0-16 8-24 24-24 11.2 0 22.4 0 35.2 0 19.2 0 27.2 6.4 27.2 27.2 0 57.6 0 115.2 0 172.8 0 96 0 192 0 288 0 17.6-8 24-25.6 24-12.8 0-24 0-36.8 0-16 0-24-8-24-24 0-78.4 0-155.2 0-232zM660.8 803.2c0 1.6 0 1.6 0 3.2-9.6 22.4-20.8 48-30.4 72-3.2 6.4-8 9.6-16 9.6-68.8 0-136 0-204.8 0-8 0-14.4-3.2-17.6-11.2-4.8-11.2-9.6-22.4-14.4-33.6-4.8-14.4-9.6-27.2-16-40 100.8 0 200 0 299.2 0z" />
<glyph unicode="&#xe915;" glyph-name="document" data-tags="document" d="M724.8 972.8h-532.8c-49.6 0-89.6-40-89.6-89.6v-368c0 0 0-476.8 0-476.8 0-49.6 40-89.6 89.6-89.6h640c49.6 0 89.6 40 89.6 89.6v736l-196.8 198.4zM560 390.4h-281.6c-24 0-44.8 20.8-44.8 44.8s20.8 44.8 44.8 44.8h281.6c24 0 44.8-20.8 44.8-44.8s-20.8-44.8-44.8-44.8zM745.6 588.8h-467.2c-24 0-44.8 20.8-44.8 44.8s20.8 44.8 44.8 44.8h467.2c24 0 44.8-20.8 44.8-44.8s-20.8-44.8-44.8-44.8zM724.8 776v145.6l145.6-145.6h-145.6z" />
<glyph unicode="&#xe916;" glyph-name="download" data-tags="download" d="M92.8 556.8c-6.4 6.4-9.6 17.6-4.8 27.2 3.2 9.6 12.8 16 22.4 16h204.8v337.6c0 14.4 11.2 25.6 25.6 25.6h340.8c6.4 0 12.8-3.2 17.6-8s8-11.2 8-17.6v-337.6h204.8c6.4 0 12.8-3.2 17.6-8 1.6-1.6 4.8-4.8 4.8-8 3.2-9.6 1.6-20.8-4.8-27.2l-400-400c-9.6-9.6-25.6-9.6-35.2 0l-401.6 400zM920 332.8l-1.6-273.6h-812.8l1.6 273.6h-107.2v-289.6c0-46.4 36.8-83.2 83.2-83.2h856c46.4 0 83.2 36.8 83.2 83.2v289.6h-102.4z" />
<glyph unicode="&#xe917;" glyph-name="edit" data-tags="edit" d="M512 264l64 60.8-89.6 86.4-64-60.8v-30.4h57.6v-56h32zM761.6 664c-6.4 6.4-12.8 6.4-19.2 0l-198.4-196.8c-6.4-6.4-6.4-12.8 0-19.2s12.8-6.4 19.2 0l198.4 190.4c6.4 12.8 6.4 19.2 0 25.6v0zM806.4 337.6v-104c-3.2-46.4-12.8-83.2-44.8-115.2-32-30.4-76.8-44.8-121.6-44.8h-473.6c-72 0-171.2 51.2-166.4 160v454.4c0 43.2 11.2 88 43.2 118.4s78.4 41.6 123.2 41.6h456c25.6 0 62.4 0 75.2-9.6 25.6-17.6-11.2-46.4-22.4-83.2-6.4-20.8-46.4-12.8-62.4-9.6-60.8 9.6-441.6 0-441.6 0-25.6 0-72-3.2-70.4-78.4l-4.8-427.2c3.2-51.2 49.6-67.2 75.2-67.2l454.4-3.2c72 0 86.4 36.8 86.4 83.2v49.6c0 6.4 0 12.8 9.6 17.6l52.8 30.4c11.2 6.4 12.8 8 19.2 6.4 8-1.6 12.8-12.8 12.8-19.2v0zM755.2 744l166.4-160-384-369.6h-172.8v160l390.4 369.6zM1004.8 670.4l-51.2-49.6-166.4 160 51.2 49.6c12.8 12.8 25.6 19.2 38.4 19.2s25.6-6.4 38.4-19.2l89.6-86.4c12.8-12.8 19.2-24 19.2-36.8s-6.4-25.6-19.2-36.8v0z" />
<glyph unicode="&#xe918;" glyph-name="email" data-tags="email" d="M534.4 464l432 371.2h-944l432-371.2c22.4-19.2 57.6-19.2 80 0zM1017.6 800l-473.6-396.8c-25.6-22.4-70.4-22.4-96 0l-448 374.4v-588.8c0-105.6 86.4-102.4 192-102.4h640c105.6 0 192-3.2 192 102.4v582.4c0 9.6-3.2 19.2-6.4 28.8z" />
<glyph unicode="&#xe919;" glyph-name="empower" data-tags="empower" d="M960 756.8c-145.6 80-304 137.6-451.2 216-145.6-83.2-304-142.4-446.4-228.8-17.6-316.8 164.8-638.4 459.2-795.2 289.6 164.8 467.2 491.2 438.4 808zM768 587.2l-241.6-244.8c-16-16-41.6-17.6-59.2 0l-1.6 1.6-126.4 123.2c-16 16-16 41.6-1.6 59.2 16 16 41.6 16 59.2 1.6l97.6-96 212.8 214.4c16 16 41.6 16 59.2 0 17.6-17.6 17.6-43.2 1.6-59.2z" />
<glyph unicode="&#xe91a;" glyph-name="enlarge" data-tags="enlarge" d="M995.2 113.6l-169.6 169.6c44.8 70.4 72 152 72 241.6 0 248-201.6 448-448 448-248 0-449.6-201.6-449.6-448 0-248 201.6-448 448-448 89.6 0 171.2 27.2 241.6 72l169.6-169.6c36.8-36.8 99.2-36.8 136 0 38.4 35.2 38.4 96 0 134.4zM448 203.2c-177.6 0-320 144-320 320s144 321.6 320 321.6c177.6 0 320-144 320-320s-142.4-321.6-320-321.6zM604.8 588.8h-108.8v100.8c0 25.6-20.8 48-46.4 48s-46.4-22.4-46.4-48v-100.8h-108.8c-25.6 0-46.4-20.8-46.4-48s20.8-48 46.4-48h108.8v-112c0-25.6 20.8-48 46.4-48s46.4 20.8 46.4 48v112h108.8c25.6 0 46.4 20.8 46.4 48s-20.8 48-46.4 48z" />
<glyph unicode="&#xe91b;" glyph-name="error" data-tags="error" d="M873.6 822.4v0c-92.8 94.4-220.8 150.4-363.2 150.4-139.2 0-265.6-56-358.4-147.2l-3.2-3.2c-92.8-91.2-148.8-220.8-148.8-361.6 0-142.4 56-270.4 148.8-363.2v0c92.8-92.8 220.8-150.4 361.6-150.4 139.2 0 267.2 56 360 147.2l3.2 3.2c92.8 94.4 150.4 222.4 150.4 363.2s-57.6 270.4-150.4 361.6zM712 340.8c20.8-20.8 20.8-54.4 0-75.2s-54.4-20.8-75.2 0l-124.8 126.4-124.8-124.8c-20.8-20.8-54.4-20.8-75.2 0s-20.8 54.4 0 75.2l124.8 124.8-124.8 124.8c-20.8 20.8-20.8 54.4 0 75.2s54.4 20.8 75.2 0l124.8-126.4 124.8 124.8c20.8 20.8 54.4 20.8 75.2 0s20.8-54.4 0-75.2l-124.8-124.8 124.8-124.8z" />
<glyph unicode="&#xe91c;" glyph-name="export" data-tags="export" d="M889.6 396.8v-209.6c0-75.2-33.6-99.2-108.8-99.2h-545.6c-75.2 0-102.4 36.8-102.4 112l3.2 532.8c0 75.2 24 108.8 99.2 108.8h68.8l3.2 131.2h-102.4c-113.6 0-204.8-91.2-204.8-204.8v-614.4c0-113.6 91.2-204.8 204.8-204.8h614.4c113.6 0 204.8 91.2 204.8 204.8v243.2h-134.4zM323.2 548.8c88-108.8 372.8-156.8 521.6 81.6l131.2-68.8c24-12.8 38.4 1.6 32 30.4l-72 345.6c-6.4 28.8-33.6 43.2-60.8 32l-328-136c-27.2-11.2-30.4-30.4-6.4-43.2l150.4-78.4c-25.6-56-134.4-232-368-163.2z" />
<glyph unicode="&#xe91d;" glyph-name="flow" data-tags="flow" d="M969.6 315.2h-57.6v91.2c0 44.8-36.8 81.6-81.6 81.6h-292.8v120h59.2c30.4 0 54.4 24 54.4 54.4v168c0 30.4-24 54.4-54.4 54.4h-169.6c-30.4 0-54.4-24-54.4-54.4v-169.6c0-30.4 24-54.4 54.4-54.4h54.4v-120h-288c-44.8 0-81.6-36.8-81.6-81.6v-91.2h-57.6c-30.4 0-54.4-24-54.4-54.4v-169.6c0-30.4 24-54.4 54.4-54.4h169.6c30.4 0 54.4 24 54.4 54.4v169.6c0 30.4-24 54.4-54.4 54.4h-56v91.2c0 14.4 12.8 27.2 27.2 27.2h288v-118.4h-54.4c-30.4 0-54.4-24-54.4-54.4v-169.6c0-30.4 24-54.4 54.4-54.4h168c30.4 0 54.4 24 54.4 54.4v169.6c0 30.4-24 54.4-54.4 54.4h-59.2v118.4h291.2c14.4 0 27.2-12.8 27.2-27.2v-91.2h-56c-30.4 0-54.4-24-54.4-54.4v-169.6c0-30.4 24-54.4 54.4-54.4h168c30.4 0 54.4 24 54.4 54.4v169.6c1.6 30.4-22.4 56-52.8 56v0z" />
<glyph unicode="&#xe91e;" glyph-name="folder-open" data-tags="folder-open" d="M960 608h-736c-35.2 0-64-28.8-64-64l-112-528h800c35.2 0 64 28.8 64 64l112 464c0 35.2-28.8 64-64 64zM176 656h720v62.4c0 35.2-28.8 64-64 64h-384v59.2c0 35.2-28.8 64-64 64h-320c-35.2 0-64-28.8-64-64v-761.6l112 512c0 35.2 28.8 64 64 64z" />
<glyph unicode="&#xe91f;" glyph-name="folder" data-tags="folder" d="M950.4 22.4h-876.8c-20.8 0-38.4 8-51.2 20.8s-22.4 32-22.4 51.2v732.8c0 40 32 73.6 73.6 73.6h366.4c17.6 0 32-6.4 44.8-17.6 57.6-38.4 116.8-129.6 174.4-129.6h292.8c40 0 73.6-32 73.6-73.6v-585.6c-1.6-40-33.6-72-75.2-72z" />
<glyph unicode="&#xe920;" glyph-name="forbidden" data-tags="forbidden" d="M512 972.8c70.4 0 136-12.8 198.4-40s116.8-64 163.2-110.4c46.4-46.4 83.2-100.8 108.8-163.2 27.2-62.4 40-128 40-198.4s-12.8-137.6-40-200c-27.2-62.4-64-116.8-108.8-163.2-46.4-46.4-100.8-83.2-163.2-108.8s-128-40-198.4-40c-70.4 0-137.6 12.8-200 40s-116.8 62.4-163.2 108.8c-46.4 46.4-83.2 100.8-108.8 163.2s-40 129.6-40 200c0 70.4 12.8 136 40 198.4s62.4 116.8 108.8 163.2 100.8 83.2 163.2 110.4 129.6 40 200 40zM508.8 832c-51.2 0-99.2-9.6-142.4-28.8s-83.2-44.8-116.8-78.4c-33.6-33.6-59.2-72-78.4-116.8s-28.8-92.8-28.8-142.4c0-38.4 4.8-75.2 16-108.8s27.2-65.6 46.4-96l508.8 507.2c-30.4 20.8-62.4 36.8-96 48s-70.4 16-108.8 16v0zM508.8 99.2c49.6 0 97.6 9.6 142.4 28.8s83.2 44.8 116.8 78.4c33.6 33.6 59.2 72 78.4 116.8s28.8 92.8 28.8 142.4c0 72-19.2 139.2-57.6 198.4l-508.8-507.2c30.4-19.2 60.8-33.6 94.4-43.2 32-9.6 67.2-14.4 105.6-14.4z" />
<glyph unicode="&#xe921;" glyph-name="group" data-tags="group" d="M740.8 124.8v-35.2h-740.8v35.2c0 128 284.8 100.8 284.8 224 0 11.2 0 22.4 0 35.2-14.4 14.4-44.8 52.8-57.6 105.6-12.8 6.4-22.4 17.6-30.4 35.2-9.6 24-9.6 59.2 8 81.6 0 0 0 0 0 1.6-3.2 30.4-12.8 113.6 36.8 166.4 28.8 30.4 72 56 126.4 57.6 56-1.6 99.2-25.6 126.4-57.6 49.6-54.4 40-136 36.8-166.4 0 0 0 0 0-1.6 17.6-22.4 17.6-56 8-81.6-6.4-17.6-17.6-30.4-30.4-35.2-12.8-52.8-43.2-91.2-57.6-105.6 0-12.8 0-25.6 0-36.8 3.2-121.6 289.6-94.4 289.6-222.4v0 0zM1024 193.6v-25.6h-217.6c0 0-28.8 48-83.2 75.2-62.4 30.4-150.4 38.4-115.2 52.8 38.4 16 68.8 35.2 68.8 70.4 0 8 0 17.6 0 27.2-9.6 11.2-33.6 40-43.2 80-9.6 4.8-17.6 14.4-22.4 27.2-6.4 19.2-8 44.8 6.4 60.8 0 0 0 0 0 1.6-3.2 24-9.6 86.4 28.8 128 22.4 24 54.4 41.6 96 43.2 43.2-1.6 75.2-19.2 96-43.2 38.4-41.6 30.4-104 28.8-128 0 0 0 0 0-1.6 14.4-17.6 12.8-43.2 6.4-60.8-4.8-12.8-12.8-22.4-22.4-27.2-9.6-40-33.6-68.8-43.2-80 0-9.6 0-19.2 0-28.8-1.6-94.4 216-73.6 216-171.2v0 0z" />
<glyph unicode="&#xe922;" glyph-name="heart-on" data-tags="heart-on" d="M952 824c-48 46.4-115.2 70.4-200 70.4-24 0-48-4.8-72-12.8s-48-19.2-68.8-33.6c-20.8-14.4-40-27.2-54.4-38.4-16-12.8-28.8-25.6-43.2-38.4-14.4 14.4-28.8 27.2-43.2 38.4-16 12.8-33.6 25.6-54.4 38.4-20.8 14.4-43.2 25.6-68.8 33.6-24 8-48 12.8-72 12.8-84.8 0-152-24-200-70.4s-72-112-72-196.8c0-25.6 4.8-51.2 12.8-78.4 9.6-27.2 19.2-49.6 30.4-68.8s24-36.8 38.4-56c14.4-17.6 25.6-30.4 32-36.8s11.2-11.2 16-14.4l356.8-344c6.4-6.4 16-11.2 25.6-11.2s17.6 3.2 25.6 11.2l356.8 342.4c88 88 131.2 172.8 131.2 257.6-4.8 81.6-28.8 147.2-76.8 195.2z" />
<glyph unicode="&#xe923;" glyph-name="help" data-tags="help" d="M873.6 822.4v0c-92.8 94.4-220.8 150.4-363.2 150.4-139.2 0-265.6-56-358.4-147.2l-3.2-3.2c-92.8-91.2-148.8-220.8-148.8-361.6 0-142.4 56-270.4 148.8-363.2v0c92.8-92.8 220.8-150.4 361.6-150.4 139.2 0 267.2 56 360 147.2l3.2 3.2c92.8 94.4 150.4 222.4 150.4 363.2s-57.6 270.4-150.4 361.6zM561.6 196.8c-8-9.6-22.4-14.4-35.2-14.4-14.4 0-27.2 6.4-35.2 14.4-9.6 9.6-14.4 22.4-14.4 35.2 0 14.4 6.4 27.2 14.4 35.2 8 9.6 20.8 14.4 35.2 14.4s27.2-6.4 35.2-14.4c9.6-9.6 14.4-22.4 14.4-35.2 1.6-12.8-4.8-25.6-14.4-35.2zM673.6 550.4c-3.2-12.8-6.4-22.4-11.2-32-6.4-11.2-12.8-20.8-20.8-28.8s-16-16-25.6-24c-9.6-8-19.2-16-27.2-30.4s-12.8-33.6-12.8-62.4c0-14.4-6.4-27.2-14.4-35.2-8-9.6-22.4-14.4-35.2-14.4-14.4 0-27.2 4.8-35.2 14.4-9.6 9.6-14.4 22.4-14.4 35.2 0 52.8 9.6 88 24 112 14.4 25.6 32 41.6 51.2 57.6 6.4 6.4 12.8 11.2 17.6 17.6 12.8 20.8 9.6 49.6-6.4 65.6-8 9.6-20.8 14.4-35.2 14.4-6.4 0-12.8-1.6-19.2-4.8s-11.2-6.4-16-11.2c-4.8-4.8-8-9.6-11.2-16s-3.2-12.8-3.2-19.2c0-14.4-6.4-27.2-16-35.2s-22.4-14.4-35.2-14.4c-14.4 0-27.2 6.4-35.2 14.4-8 9.6-14.4 22.4-14.4 35.2 0 20.8 3.2 40 11.2 59.2 8 17.6 19.2 35.2 32 48 14.4 14.4 30.4 24 48 32s38.4 11.2 59.2 11.2c27.2 0 52.8-6.4 73.6-19.2 22.4-12.8 41.6-30.4 54.4-52.8 6.4-11.2 12.8-24 16-36.8 8-22.4 8-52.8 1.6-80z" />
<glyph unicode="&#xe924;" glyph-name="home" data-tags="home" d="M1024 436.8c0-27.2-20.8-48-48-48-12.8 0-24 4.8-32 12.8v0l-432 432-430.4-430.4c-8-8-20.8-14.4-33.6-14.4-27.2 0-48 20.8-48 48 0 12.8 6.4 25.6 14.4 35.2l462.4 462.4c8 9.6 20.8 14.4 35.2 14.4v0 0 0c1.6 0 1.6 0 3.2 0 0 0 0 0 0 0s1.6 0 1.6 0c0 0 0 0 0 0 11.2-1.6 22.4-6.4 30.4-14.4v0l188.8-190.4v44.8c0 27.2 20.8 48 48 48s48-20.8 48-48v-140.8l179.2-179.2c8-8 12.8-19.2 12.8-32zM928 356.8v-336c0-27.2-20.8-48-48-48h-96v384h-192v-384h-448c-27.2 0-48 20.8-48 48v336l416 416 416-416zM432 356.8h-192v-192h192v192z" />
<glyph unicode="&#xe925;" glyph-name="image" data-tags="image" d="M1024 249.6c0-48-38.4-84.8-84.8-84.8h-854.4c-48 0-84.8 38.4-84.8 84.8v648c0 48 38.4 84.8 84.8 84.8h852.8c46.4 0 84.8-38.4 84.8-84.8l1.6-648zM84.8 915.2c-9.6 0-17.6-8-17.6-17.6v-648c0-9.6 8-17.6 17.6-17.6h852.8c9.6 0 17.6 8 17.6 17.6v648c0 9.6-8 17.6-17.6 17.6h-852.8zM238.4 641.6c-56 0-102.4 44.8-102.4 102.4 0 56 44.8 102.4 102.4 102.4 56 0 102.4-44.8 102.4-102.4s-44.8-102.4-102.4-102.4v0zM886.4 299.2h-748.8v102.4l171.2 171.2 84.8-84.8 273.6 272 222.4-222.4-3.2-238.4z" />
<glyph unicode="&#xe926;" glyph-name="import" data-tags="import" d="M419.2 441.6c6.4-27.2 33.6-43.2 59.2-33.6l323.2 107.2c27.2 9.6 30.4 27.2 6.4 40l-147.2 84.8c25.6 49.6 134.4 209.6 363.2 128-86.4 107.2-366.4 172.8-515.2-41.6l-129.6 73.6c-24 12.8-36.8 1.6-32-25.6l72-332.8zM884.8 188.8c0-75.2-32-97.6-107.2-97.6h-544c-75.2 0-102.4 35.2-102.4 110.4l4.8 529.6c0 75.2 24 108.8 99.2 108.8h67.2l3.2 131.2h-102.4c-112-1.6-203.2-92.8-203.2-204.8v-611.2c0-112 91.2-203.2 203.2-203.2h611.2c112 0 203.2 91.2 203.2 203.2v241.6h-134.4v-208z" />
<glyph unicode="&#xe927;" glyph-name="lock" data-tags="lock" d="M832-51.2h-640c-35.2 0-64 28.8-64 64v544c0 35.2 28.8 64 64 64h96v128c0 123.2 100.8 224 224 224s224-100.8 224-224v-128h96c35.2 0 64-28.8 64-64v-544c0-35.2-28.8-64-64-64zM480 275.2v-134.4h64v134.4c36.8 12.8 64 48 64 89.6 0 52.8-43.2 96-96 96s-96-43.2-96-96c0-41.6 27.2-76.8 64-89.6zM640 748.8c0 70.4-57.6 128-128 128s-128-57.6-128-128v-128h256v128z" />
<glyph unicode="&#xe928;" glyph-name="main-unit" data-tags="main-unit" d="M841.6 972.8h-659.2c-22.4 0-36.8-14.4-36.8-36.8v-950.4c0-22.4 14.4-36.8 36.8-36.8h657.6c22.4 0 36.8 14.4 36.8 36.8v950.4c1.6 22.4-14.4 36.8-35.2 36.8zM548.8 350.4c-22.4 0-36.8 14.4-36.8 36.8s14.4 36.8 36.8 36.8 36.8-14.4 36.8-36.8-14.4-36.8-36.8-36.8zM731.2 315.2c-43.2 0-73.6 28.8-73.6 73.6s30.4 72 73.6 72 73.6-28.8 73.6-73.6-28.8-72-73.6-72zM804.8 534.4h-585.6v145.6h585.6v-145.6zM804.8 753.6h-585.6v145.6h585.6v-145.6z" />
<glyph unicode="&#xe929;" glyph-name="menu-card" data-tags="menu-card" d="M403.2 971.2c-54.4 0-108.8 0-163.2 0-56 0-113.6 0-169.6 0-46.4 0-70.4-19.2-70.4-67.2 0-112 0-222.4 0-334.4 0-44.8 22.4-67.2 65.6-67.2 113.6 0 227.2-1.6 340.8 0 40 0 62.4 20.8 64 62.4 0 113.6 0 227.2 0 340.8-1.6 43.2-22.4 65.6-67.2 65.6zM953.6 971.2c-52.8 0-270.4-1.6-328-1.6-51.2 1.6-72-24-72-73.6 0-107.2 0-214.4 0-321.6 0-49.6 20.8-75.2 72-75.2 108.8 0 219.2 0 328 0 46.4 0 70.4 20.8 70.4 68.8 0 112 0 222.4 0 334.4 0 49.6-24 70.4-70.4 68.8zM393.6 417.6c-54.4-1.6-108.8 0-164.8 0-52.8 0-105.6-1.6-158.4 0-46.4 1.6-70.4-19.2-70.4-67.2 0-112 0-222.4 0-334.4 0-43.2 19.2-65.6 65.6-65.6 112 0 222.4 1.6 334.4 0 48 0 68.8 24 68.8 70.4 0 108.8 0 219.2 0 328 1.6 51.2-25.6 70.4-75.2 68.8zM956.8 417.6c-110.4 0-222.4 0-334.4 0-46.4 0-70.4-24-70.4-68.8 0-112 0-222.4 0-334.4 0-43.2 22.4-65.6 67.2-65.6 113.6 0 227.2 0 340.8 0 41.6 0 62.4 20.8 60.8 62.4 0 56 0 113.6 0 169.6s0 113.6 0 169.6c1.6 46.4-19.2 67.2-64 67.2zM1024 904c0 48-24 68.8-70.4 67.2-51.2 0-270.4-1.6-328-1.6z" />
<glyph unicode="&#xe92a;" glyph-name="menu-list" data-tags="menu-list" d="M950.4 956.8h-876.8c-41.6 0-73.6-33.6-73.6-73.6v-36.8c0-40 32-73.6 73.6-73.6h878.4c40 0 73.6 33.6 73.6 73.6v36.8c-1.6 40-33.6 73.6-75.2 73.6zM950.4 552h-876.8c-41.6 0-73.6-32-73.6-73.6v-36.8c0-40 32-73.6 73.6-73.6h878.4c40 0 73.6 33.6 73.6 73.6v36.8c-1.6 41.6-33.6 73.6-75.2 73.6zM950.4 148.8h-876.8c-41.6 0-73.6-33.6-73.6-73.6v-36.8c0-40 32-73.6 73.6-73.6h878.4c40 0 73.6 33.6 73.6 73.6v36.8c-1.6 40-33.6 73.6-75.2 73.6z" />
<glyph unicode="&#xe92b;" glyph-name="minus" data-tags="minus" d="M873.6 822.4v0c-92.8 94.4-220.8 150.4-363.2 150.4-139.2 0-265.6-56-358.4-147.2l-3.2-3.2c-92.8-91.2-148.8-220.8-148.8-361.6 0-142.4 56-270.4 148.8-363.2v0c92.8-92.8 220.8-150.4 361.6-150.4 139.2 0 267.2 56 360 147.2l3.2 3.2c92.8 94.4 150.4 222.4 150.4 363.2s-57.6 270.4-150.4 361.6zM752 430.4c-8-8-20.8-14.4-33.6-14.4-177.6 0-180.8 0-198.4 0-16 0-33.6 0-212.8 0-12.8 0-25.6 4.8-35.2 14.4-8 9.6-14.4 20.8-14.4 35.2 0 12.8 4.8 25.6 14.4 33.6s20.8 14.4 35.2 14.4c177.6 0 195.2 0 212.8 0s20.8 0 198.4 0c12.8 0 25.6-4.8 33.6-14.4 9.6-9.6 14.4-20.8 14.4-33.6s-6.4-24-14.4-35.2z" />
<glyph unicode="&#xe92c;" glyph-name="move-to" data-tags="move-to" d="M929.6 784h-472c-51.2 0-94.4-41.6-94.4-91.2v-89.6h-248c0-1.6-115.2 1.6-115.2-108.8 0-92.8 0-436.8 0-436.8 0-56 51.2-102.4 115.2-102.4h617.6c64 0 115.2 46.4 115.2 102.4v192h81.6c51.2 0 94.4 41.6 94.4 91.2v350.4c0 51.2-41.6 92.8-94.4 92.8zM915.2 358.4h-67.2v142.4c0 56-51.2 102.4-115.2 102.4h-260.8v72h443.2v-316.8zM200 755.2l1.6-104c0-16 11.2-20.8 25.6-8l164.8 139.2c14.4 11.2 12.8 30.4 0 41.6v0l-168 136c-14.4 11.2-25.6 8-25.6-9.6v-89.6c-169.6-14.4-222.4-182.4-188.8-260.8 27.2 145.6 153.6 155.2 190.4 155.2z" />
<glyph unicode="&#xe92d;" glyph-name="move" data-tags="move" d="M1017.6 475.2l-145.6 145.6c-12.8 12.8-33.6 3.2-33.6-14.4v-84.8l-265.6 1.6v264h84.8c17.6 0 27.2 20.8 14.4 33.6l-145.6 145.6c-8 8-20.8 8-28.8 0l-145.6-145.6c-12.8-12.8-3.2-33.6 14.4-33.6h84.8l-1.6-265.6-264 1.6v83.2c0 17.6-20.8 27.2-33.6 14.4l-145.6-145.6c-8-8-8-20.8 0-28.8l145.6-145.6c12.8-12.8 33.6-3.2 33.6 14.4l1.6 84.8 262.4-4.8v-260.8h-83.2c-17.6 0-27.2-20.8-14.4-33.6l145.6-145.6c8-8 20.8-8 28.8 0l145.6 145.6c12.8 12.8 3.2 33.6-14.4 33.6l-84.8 1.6v259.2l265.6 1.6v-80c0-17.6 20.8-27.2 33.6-14.4l145.6 145.6c8 6.4 8 19.2 0 27.2z" />
<glyph unicode="&#xe92e;" glyph-name="plus" data-tags="plus" d="M510.4 974.4c140.8 0 270.4-56 361.6-150.4v0c92.8-92.8 150.4-220.8 150.4-361.6 0-142.4-57.6-270.4-150.4-363.2l-3.2-3.2c-92.8-91.2-219.2-147.2-360-147.2s-268.8 57.6-361.6 150.4v0 0c-91.2 94.4-147.2 222.4-147.2 363.2s56 268.8 148.8 361.6l3.2 3.2c92.8 91.2 219.2 147.2 358.4 147.2v0zM459.2 689.6v0-174.4h-174.4c-28.8 0-52.8-24-52.8-51.2 0-30.4 24-52.8 52.8-52.8h174.4v-174.4c0-28.8 24-52.8 51.2-52.8 28.8 0 52.8 24 52.8 52.8v172.8h174.4c28.8 0 51.2 22.4 51.2 52.8 0 28.8-22.4 51.2-51.2 51.2h-174.4v176c0 28.8-24 51.2-52.8 51.2-27.2 0-51.2-22.4-51.2-51.2v0z" />
<glyph unicode="&#xe92f;" glyph-name="position" data-tags="position" d="M512 972.8c-225.6 0-408-179.2-408-398.4 0-220.8 342.4-625.6 408-625.6 64 0 408 404.8 408 625.6 0 219.2-182.4 398.4-408 398.4v0zM512 308.8c-150.4 0-272 118.4-272 265.6s121.6 265.6 272 265.6 272-118.4 272-265.6c0-147.2-121.6-265.6-272-265.6v0zM512 707.2c75.2 0 136-59.2 136-132.8s-60.8-132.8-136-132.8c-75.2 0-136 59.2-136 132.8s60.8 132.8 136 132.8v0z" />
<glyph unicode="&#xe930;" glyph-name="recommit" data-tags="recommit" d="M512 972.8c-142.4 0-272-59.2-364.8-153.6l-65.6 64c-12.8 11.2-24 4.8-24-16l-17.6-188.8c0-20.8 14.4-35.2 33.6-32l198.4 16c17.6 3.2 22.4 16 9.6 28.8l-64 62.4c75.2 73.6 180.8 123.2 294.4 123.2 230.4 0 416-185.6 416-416s-185.6-416-416-416-416 185.6-416 416c0 25.6-22.4 48-48 48s-48-22.4-48-48c0-281.6 230.4-512 512-512s512 233.6 512 512c0 281.6-230.4 512-512 512zM377.6 219.2h171.2l48 52.8-17.6 35.2 46.4 40 1.6 41.6 25.6-54.4-33.6-28.8 36.8-43.2-28.8-41.6h41.6c22.4 0 41.6 19.2 41.6 41.6v336l-89.6 89.6h-243.2c-22.4 0-41.6-19.2-41.6-41.6v-169.6c0 0 0-217.6 0-217.6 0-22.4 19.2-40 41.6-40zM620.8 662.4l65.6-65.6h-65.6v65.6zM417.6 552h212.8c11.2 0 20.8-9.6 20.8-20.8s-9.6-20.8-20.8-20.8h-212.8c-11.2 0-20.8 9.6-20.8 20.8s9.6 20.8 20.8 20.8zM417.6 460.8h128c11.2 0 20.8-9.6 20.8-20.8s-9.6-20.8-20.8-20.8h-128c-11.2 0-20.8 9.6-20.8 20.8s9.6 20.8 20.8 20.8z" />
<glyph unicode="&#xe931;" glyph-name="reduce" data-tags="reduce" d="M995.2-22.4c-36.8-36.8-99.2-36.8-136 0l-169.6 169.6c-70.4-44.8-152-72-241.6-72-248 0-448 201.6-448 448s201.6 449.6 448 449.6c248 0 448-201.6 448-448 0-89.6-27.2-171.2-72-241.6l169.6-169.6c40-38.4 40-99.2 1.6-136zM448 844.8c-176 0-320-144-320-320s144-320 320-320c177.6 0 320 144 320 320s-142.4 320-320 320zM294.4 556.8c-25.6 0-48-22.4-48-48s22.4-48 48-48h307.2c25.6 0 48 22.4 48 48s-19.2 48-48 48h-307.2z" />
<glyph unicode="&#xe932;" glyph-name="refresh" data-tags="refresh" d="M763.2 276.8c-56-80-147.2-132.8-249.6-132.8-168 0-305.6 140.8-307.2 315.2 0 0 72 0 75.2 0s19.2 12.8 4.8 28.8-121.6 131.2-129.6 139.2c-14.4 16-20.8 14.4-33.6-1.6-11.2-12.8-107.2-124.8-118.4-137.6-14.4-16 1.6-27.2 8-27.2s75.2 0 75.2 0c1.6-241.6 190.4-436.8 425.6-436.8 136 0 256 65.6 334.4 168l-84.8 84.8zM939.2 459.2v0c0 1.6 0 1.6 0 1.6 0 241.6-190.4 438.4-425.6 438.4-136 0-257.6-67.2-336-169.6l84.8-86.4c56 81.6 147.2 134.4 251.2 134.4 169.6 0 307.2-142.4 307.2-316.8 0 0 0-1.6 0-1.6s-36.8-1.6-78.4-1.6c-16 0-17.6-17.6-9.6-25.6 38.4-38.4 124.8-124.8 131.2-132.8 4.8-4.8 20.8-17.6 38.4 0s104 115.2 118.4 132.8c9.6 12.8 1.6 25.6-8 25.6-33.6 1.6-73.6 1.6-73.6 1.6z" />
<glyph unicode="&#xe933;" glyph-name="rerun" data-tags="rerun" d="M601.6 230.4c12.8 0 22.4 8 22.4 19.2v422.4c0 4.8-1.6 9.6-6.4 12.8-9.6 8-24 8-33.6 0l-252.8-209.6c-9.6-8-9.6-19.2 0-27.2l252.8-211.2c4.8-4.8 11.2-6.4 17.6-6.4zM512 972.8c-142.4 0-272-59.2-364.8-153.6l-65.6 64c-12.8 11.2-24 4.8-24-16l-17.6-188.8c0-20.8 14.4-35.2 33.6-32l198.4 16c17.6 3.2 22.4 16 9.6 28.8l-64 62.4c75.2 73.6 180.8 123.2 294.4 123.2 230.4 0 416-185.6 416-416s-185.6-416-416-416-416 185.6-416 416c0 25.6-22.4 48-48 48s-48-22.4-48-48c0-281.6 230.4-512 512-512s512 233.6 512 512c0 281.6-230.4 512-512 512z" />
<glyph unicode="&#xe934;" glyph-name="reset" data-tags="reset" d="M283.2 35.2c-81.6 48-144 115.2-187.2 192l155.2 35.2c25.6-35.2 67.2-73.6 107.2-96 156.8-91.2 376-32 465.6 123.2 89.6 156.8 33.6 368-123.2 459.2-132.8 76.8-334.4 41.6-436.8-62.4 0 0 67.2-43.2 99.2-64 52.8-32-1.6-46.4-48-67.2 0 0-211.2-86.4-214.4-88-30.4-9.6-64-22.4-75.2 51.2l-20.8 257.6c-14.4 65.6 3.2 80 33.6 65.6 88-56 102.4-73.6 102.4-73.6 148.8 187.2 417.6 243.2 633.6 118.4 236.8-137.6 320-438.4 184-673.6s-438.4-315.2-675.2-177.6v0z" />
<glyph unicode="&#xe935;" glyph-name="restart" data-tags="restart" d="M499.2 696c-25.6 0-38.4-14.4-38.4-33.6v-216c0-14.4 8-48 44.8-48h214.4c24 0 40 16 40 40 0 28.8-20.8 40-40 40h-182.4v185.6c0 17.6-16 32-38.4 32zM512 972.8c-142.4 0-272-59.2-364.8-153.6l-65.6 64c-12.8 11.2-24 4.8-24-16l-17.6-188.8c0-20.8 14.4-35.2 33.6-32l198.4 16c17.6 3.2 22.4 16 9.6 28.8l-64 62.4c75.2 73.6 180.8 123.2 294.4 123.2 230.4 0 416-185.6 416-416s-185.6-416-416-416-416 185.6-416 416c0 25.6-22.4 48-48 48s-48-22.4-48-48c0-281.6 230.4-512 512-512s512 233.6 512 512c0 281.6-230.4 512-512 512z" />
<glyph unicode="&#xe936;" glyph-name="save" data-tags="save" d="M852.8 32l59.2-3.2v595.2c0 67.2-137.6 248-137.6 248-12.8 19.2-16 30.4-60.8 30.4v-289.6c0-19.2-6.4-32-19.2-44.8s-40-27.2-51.2-27.2l-403.2-3.2c-19.2 0-30.4 6.4-43.2 19.2s-19.2 32-19.2 44.8v296h-72v-868.8h70.4v297.6c0 19.2 6.4 32 19.2 44.8s24 19.2 43.2 19.2l552 3.2c19.2 0 30.4-6.4 43.2-19.2s19.2-25.6 19.2-44.8v-297.6zM641.6 640v224c0 12.8-1.6 25.6-19.2 25.6h-161.6c-16 0-19.2-6.4-19.2-25.6v-224c0-12.8 4.8-19.2 19.2-19.2h161.6c16 0 19.2 4.8 19.2 19.2v0zM988.8 646.4v-617.6c0-27.2-6.4-48-19.2-60.8s-25.6-19.2-43.2-19.2h-828.8c-19.2 0-30.4 6.4-43.2 19.2s-19.2 25.6-19.2 44.8v892.8c0 19.2 6.4 32 19.2 44.8s25.6 19.2 43.2 19.2l632 3.2c59.2 0 81.6-12.8 105.6-44.8 0 0 153.6-216 153.6-281.6v0 0z" />
<glyph unicode="&#xe937;" glyph-name="search" data-tags="search" d="M995.2-22.4c-36.8-36.8-99.2-36.8-136 0l-169.6 169.6c-70.4-44.8-152-72-241.6-72-248 0-448 201.6-448 448s201.6 449.6 448 449.6c248 0 448-201.6 448-448 0-89.6-27.2-171.2-72-241.6l169.6-169.6c40-38.4 40-99.2 1.6-136zM448 844.8c-176 0-320-144-320-320s144-320 320-320c177.6 0 320 144 320 320s-142.4 320-320 320z" />
<glyph unicode="&#xe938;" glyph-name="setting" data-tags="setting" d="M948.8 363.2c-51.2 86.4-27.2 193.6 52.8 252.8 11.2 8 14.4 25.6 8 38.4l-76.8 128c-8 12.8-22.4 17.6-35.2 12.8-24-9.6-51.2-16-80-16-102.4 0-187.2 75.2-200 171.2-1.6 12.8-14.4 22.4-28.8 22.4h-155.2c-14.4 0-27.2-11.2-28.8-24-3.2-25.6-11.2-49.6-25.6-73.6-51.2-86.4-161.6-120-256-81.6-12.8 4.8-27.2 0-35.2-12.8l-76.8-128c-8-12.8-4.8-28.8 8-38.4 20.8-14.4 38.4-35.2 52.8-57.6 54.4-84.8 30.4-192-49.6-251.2-11.2-8-14.4-25.6-8-38.4l76.8-128c8-12.8 22.4-17.6 35.2-12.8 24 9.6 51.2 16 80 16 102.4 0 187.2-73.6 200-169.6 1.6-14.4 14.4-24 28.8-24h155.2c14.4 0 27.2 11.2 28.8 25.6 9.6 70.4 59.2 139.2 160 176 40 14.4 80 1.6 116.8-20.8 12.8-8 30.4-3.2 38.4 11.2l76.8 128c8 12.8 4.8 28.8-8 38.4-22.4 12.8-40 32-54.4 56zM512 252.8c-118.4 0-214.4 92.8-214.4 208s96 208 214.4 208 214.4-92.8 214.4-208c0-113.6-96-208-214.4-208z" />
<glyph unicode="&#xe939;" glyph-name="share" data-tags="share" d="M814.4 305.6c48 0 92.8-20.8 126.4-52.8v0c32-32 52.8-76.8 52.8-126.4-1.6-97.6-81.6-177.6-179.2-177.6s-177.6 80-177.6 179.2c0 20.8 3.2 38.4 9.6 57.6l-190.4 113.6c-3.2-3.2-6.4-6.4-8-9.6l-3.2-1.6c-43.2-43.2-104-68.8-169.6-68.8-134.4-1.6-243.2 108.8-243.2 241.6s108.8 243.2 243.2 243.2c67.2 0 128-27.2 171.2-72v0 0c3.2-3.2 6.4-6.4 8-9.6l190.4 113.6c-6.4 19.2-9.6 38.4-9.6 57.6 0 99.2 81.6 179.2 179.2 179.2s177.6-80 177.6-177.6c0-99.2-80-177.6-177.6-177.6-49.6-1.6-94.4 19.2-126.4 51.2l-1.6 1.6-188.8-113.6c12.8-28.8 19.2-62.4 19.2-96s-6.4-67.2-19.2-96l188.8-113.6 1.6 1.6c32 32 76.8 52.8 126.4 52.8v0z" />
<glyph unicode="&#xe93a;" glyph-name="shopping" data-tags="shopping" d="M984 723.2v0c3.2 0 6.4 0 9.6-1.6 20.8-4.8 33.6-27.2 28.8-48l-57.6-321.6c-3.2-19.2-19.2-33.6-40-33.6h-571.2l27.2-99.2h521.6c22.4 0 40-17.6 40-40 0-20.8-14.4-36.8-35.2-40 9.6-16 16-35.2 16-54.4 0-28.8-11.2-54.4-30.4-73.6v0c-19.2-19.2-44.8-30.4-72-30.4-28.8 0-54.4 11.2-73.6 30.4s-30.4 44.8-30.4 73.6c0 19.2 6.4 38.4 16 54.4h-302.4c9.6-16 16-35.2 16-54.4 0-28.8-11.2-54.4-30.4-73.6-17.6-19.2-44.8-30.4-72-30.4s-52.8 11.2-72 28.8l-1.6 1.6c-19.2 19.2-30.4 44.8-30.4 73.6s11.2 54.4 30.4 72c11.2 9.6 22.4 19.2 36.8 24l-180.8 680h-86.4c-22.4 0-40 17.6-40 40s17.6 40 40 40h116.8c19.2 0 35.2-12.8 40-32l51.2-195.2 736 9.6z" />
<glyph unicode="&#xe93b;" glyph-name="star-on" data-tags="star-on" d="M1020.8 587.2c-9.6 25.6-32 44.8-59.2 48l-267.2 40-115.2 240c-12.8 25.6-38.4 41.6-67.2 41.6s-54.4-16-67.2-41.6l-115.2-240-267.2-40c-27.2-4.8-49.6-22.4-59.2-48s-1.6-54.4 17.6-73.6l195.2-195.2-44.8-270.4c-4.8-27.2 8-54.4 30.4-70.4 12.8-8 27.2-12.8 43.2-12.8 12.8 0 24 3.2 35.2 9.6l232 124.8 232-124.8c11.2-6.4 24-9.6 35.2-9.6 14.4 0 30.4 4.8 43.2 12.8 22.4 16 35.2 43.2 30.4 70.4l-44.8 270.4 195.2 195.2c19.2 19.2 25.6 48 17.6 73.6z" />
<glyph unicode="&#xe93c;" glyph-name="sum" data-tags="sum" d="M512-51.2c-321.6 0-457.6 113.6-457.6 348.8 0 195.2 153.6 398.4 339.2 462.4h236.8c185.6-64 339.2-267.2 339.2-462.4 0-235.2-136-348.8-457.6-348.8v0 0zM638.4 334.4v0c20.8 0 38.4 17.6 38.4 38.4s-16 40-38.4 40v0h-78.4c0 1.6 0 1.6 0 3.2l91.2 92.8c14.4 16 8 30.4-8 46.4s-40 19.2-52.8 4.8l-78.4-83.2-84.8 84.8c-11.2 11.2-32 6.4-46.4-8s-19.2-35.2-8-46.4l88-86.4c-1.6-1.6-3.2-4.8-3.2-6.4h-70.4c-20.8 0-38.4-17.6-38.4-38.4s17.6-38.4 38.4-38.4v0 0h76.8v-38.4h-78.4c-20.8 0-38.4-17.6-38.4-38.4s17.6-38.4 38.4-38.4v0 0h78.4v-38.4c0-3.2-1.6-6.4-1.6-9.6 0-27.2 22.4-48 48-48 27.2 0 48 20.8 48 48 0 3.2 0 6.4-1.6 9.6v0 38.4h78.4c20.8 0 38.4 17.6 38.4 38.4s-17.6 38.4-38.4 38.4v0h-75.2v38.4h78.4v-3.2zM688 904c0 0-70.4-86.4-70.4-86.4h-232c0 0-70.4 86.4-70.4 88 0 0-8 8-8 19.2 0 12.8 6.4 22.4 19.2 27.2s96 20.8 176 20.8c83.2 0 164.8-16 176-20.8 12.8-4.8 19.2-14.4 19.2-27.2 0-11.2-9.6-20.8-9.6-20.8z" />
<glyph unicode="&#xe93d;" glyph-name="swap-down" data-tags="swap-down" d="M83.2 457.6c16-19.2 355.2-403.2 387.2-438.4 19.2-22.4 67.2-22.4 86.4 0 19.2 25.6 361.6 416 387.2 444.8 19.2 22.4 6.4 60.8-32 60.8-16 0-121.6 0-256 0 0 0 0 278.4 0 371.2 0 9.6-6.4 22.4-22.4 22.4-108.8 3.2-185.6 0-262.4 0-9.6 0-19.2-12.8-19.2-22.4 0-92.8 0-371.2 0-371.2-128 0-227.2 0-240 0-35.2-3.2-51.2-41.6-28.8-67.2z" />
<glyph unicode="&#xe93e;" glyph-name="swap-left" data-tags="swap-left" d="M508.8 889.6c-19.2-16-403.2-355.2-438.4-384-22.4-19.2-22.4-67.2 0-86.4 25.6-22.4 416-364.8 444.8-390.4 22.4-19.2 60.8-6.4 60.8 32 0 16 0 121.6 0 256 0 0 278.4 0 371.2 0 9.6 0 22.4 6.4 22.4 22.4 3.2 108.8 0 185.6 0 262.4 0 9.6-12.8 19.2-22.4 19.2-92.8 0-371.2 0-371.2 0 0 128 0 227.2 0 240-3.2 35.2-41.6 51.2-67.2 28.8z" />
<glyph unicode="&#xe93f;" glyph-name="data-allocation" data-tags="data-allocation" d="M523.2 526.4l-11.2 302.4c1.6 0 3.2 0 4.8 0 179.2 0 328-140.8 334.4-320 0-8 0-14.4 0-22.4 36.8-11.2 68.8-28.8 97.6-52.8 3.2 25.6 4.8 51.2 4.8 78.4-8 240-211.2 427.2-452.8 419.2v0c-16 0-33.6-1.6-48-4.8-25.6-3.2-44.8-25.6-43.2-52.8l9.6-300.8-289.6-9.6c-27.2-1.6-48-22.4-49.6-49.6 0-9.6 0-20.8 0-32 8-225.6 188.8-404.8 411.2-417.6-16 32-27.2 68.8-30.4 105.6-145.6 24-260.8 144-276.8 294.4l291.2 11.2c27.2-1.6 49.6 22.4 48 51.2zM358.4 972.8c-204.8-8-352-163.2-344-366.4 0 3.2 356.8 12.8 356.8 12.8s-12.8 353.6-12.8 353.6zM760 446.4c-137.6 0-249.6-112-249.6-249.6 1.6-136 112-248 249.6-248s249.6 112 249.6 249.6c0 137.6-112 248-249.6 248zM924.8 92.8h-60.8c-11.2 0-19.2 9.6-19.2 19.2v60.8c0 11.2 9.6 19.2 19.2 19.2h20.8v32c0 4.8-4.8 9.6-9.6 9.6h-105.6v-43.2h20.8c11.2 0 19.2-9.6 19.2-19.2v-60.8c0-11.2-9.6-19.2-19.2-19.2h-60.8c-11.2 0-19.2 9.6-19.2 19.2v62.4c0 11.2 9.6 19.2 19.2 19.2h19.2v43.2h-104c-4.8 0-9.6-4.8-9.6-9.6v-32h20.8c11.2 0 19.2-9.6 19.2-19.2v-60.8c0-11.2-9.6-19.2-19.2-19.2h-60.8c-11.2 0-19.2 9.6-19.2 19.2v59.2c0 11.2 9.6 19.2 19.2 19.2h20.8v32c0 16 12.8 30.4 28.8 30.4h104v43.2h-19.2c-11.2 0-19.2 9.6-19.2 19.2v60.8c0 11.2 9.6 19.2 19.2 19.2h60.8c11.2 0 19.2-9.6 19.2-19.2v-60.8c0-11.2-9.6-19.2-19.2-19.2h-20.8v-43.2h105.6c16 0 28.8-12.8 28.8-30.4v-32h20.8c11.2 0 19.2-9.6 19.2-19.2v-60.8c1.6-11.2-8-19.2-19.2-19.2z" />
<glyph unicode="&#xe940;" glyph-name="basic-information-registration" data-tags="basic-information-registration" d="M924.8 734.4c14.4 14.4 22.4 28.8 22.4 43.2s-8 28.8-22.4 43.2l-104 100.8c-14.4 14.4-30.4 20.8-44.8 20.8s-30.4-6.4-44.8-20.8l-59.2-57.6 192-187.2 60.8 57.6zM827.2 633.6l-193.6 187.2-456-430.4v-187.2h201.6l448 430.4zM385.6 497.6l232 230.4c8 6.4 14.4 6.4 22.4 0s8-14.4 0-28.8l-230.4-222.4c-8-6.4-14.4-6.4-22.4 0s-8 14.4-1.6 20.8zM312 260.8v64h-67.2v35.2l75.2 72 104-100.8-75.2-72h-36.8zM980.8 110.4h-936c-19.2 0-35.2-16-35.2-35.2v-27.2c0-19.2 16-35.2 35.2-35.2h936c19.2 0 35.2 16 35.2 35.2v27.2c0 19.2-16 35.2-35.2 35.2z" />
<glyph unicode="&#xe941;" glyph-name="data-monitoring" data-tags="data-monitoring" d="M352 972.8c-209.6-8-360-166.4-352-374.4 0 3.2 364.8 12.8 364.8 12.8s-12.8 361.6-12.8 361.6zM521.6 515.2l-11.2 310.4c1.6 0 3.2 0 4.8 0 184 0 336-144 342.4-328 0 0 0 0 0 0 38.4-12.8 72-30.4 102.4-56 1.6 19.2 3.2 40 1.6 60.8-9.6 244.8-217.6 436.8-464 427.2v0c-16 0-33.6-1.6-49.6-4.8-27.2-3.2-46.4-27.2-44.8-52.8l11.2-307.2-296-11.2c-27.2-1.6-49.6-24-49.6-51.2 0-11.2 0-20.8 0-33.6 8-235.2 200-420.8 432-427.2-20.8 32-33.6 68.8-41.6 108.8-150.4 24-270.4 147.2-286.4 300.8l297.6 11.2c28.8 0 51.2 24 51.2 52.8zM763.2 456c-140.8 0-254.4-113.6-254.4-254.4s113.6-254.4 254.4-254.4c140.8 0 254.4 113.6 254.4 254.4s-113.6 254.4-254.4 254.4zM969.6 201.6c0 0 0 0 0 0s0-1.6 0 0c0-1.6 0-1.6 0 0 0-1.6 0-1.6 0 0 0-4.8-1.6-8-4.8-11.2-4.8-6.4-9.6-11.2-14.4-16-25.6-27.2-54.4-52.8-88-70.4-20.8-11.2-43.2-20.8-65.6-25.6-25.6-4.8-49.6-4.8-75.2 1.6-43.2 9.6-81.6 35.2-116.8 65.6-16 14.4-32 28.8-44.8 46.4-6.4 8-6.4 16 0 24 4.8 6.4 9.6 11.2 14.4 16 25.6 27.2 54.4 52.8 88 70.4 20.8 11.2 43.2 20.8 65.6 25.6 25.6 4.8 49.6 4.8 75.2-1.6 43.2-9.6 81.6-35.2 116.8-65.6 16-14.4 32-28.8 44.8-46.4 1.6-3.2 3.2-6.4 4.8-9.6 0 0 0 0 0 0s0 0 0 0 0 0 0 0 0 0 0 0 0 0 0 0c0-1.6 0-1.6 0-3.2 0 0 0 0 0 0v0c0 0 0 0 0 0zM763.2 289.6c-43.2 0-76.8-36.8-76.8-83.2s35.2-83.2 76.8-83.2c43.2 0 76.8 36.8 76.8 83.2 0 44.8-33.6 83.2-76.8 83.2zM763.2 164.8c-20.8 0-38.4 19.2-38.4 41.6s17.6 41.6 38.4 41.6c20.8 0 38.4-19.2 38.4-41.6s-17.6-41.6-38.4-41.6z" />
<glyph unicode="&#xe942;" glyph-name="data-approval" data-tags="data-approval" d="M726.4 971.2h-529.6c-49.6 0-89.6-40-89.6-89.6v-366.4c0 0 0-473.6 0-473.6 0-49.6 40-89.6 89.6-89.6h638.4c49.6 0 89.6 40 89.6 89.6v732.8l-198.4 196.8zM750.4 510.4l-224-216c0 0 0 0 0 0l-1.6-1.6c-9.6-8-20.8-11.2-32-11.2-12.8 0-25.6 4.8-33.6 14.4l-120 116.8c-19.2 17.6-19.2 48 0 65.6s49.6 17.6 68.8 0l86.4-83.2 188.8 184c19.2 17.6 49.6 17.6 68.8 0 16-20.8 16-49.6-1.6-68.8zM705.6 753.6v0 0 179.2l177.6-177.6h-177.6z" />
<glyph unicode="&#xe943;" glyph-name="data-developed" data-tags="data-developed" d="M721.6 972.8h-532.8c-49.6 0-89.6-40-89.6-89.6v-368c0 0 0-476.8 0-476.8 0-49.6 40-89.6 89.6-89.6h641.6c49.6 0 89.6 40 89.6 89.6v736l-198.4 198.4zM398.4 318.4c-6.4-6.4-12.8-8-19.2-8-8 0-14.4 3.2-19.2 8 0 0-110.4 107.2-108.8 107.2-6.4 6.4-8 12.8-8 20.8s4.8 14.4 9.6 19.2l110.4 91.2c11.2 9.6 28.8 8 38.4-3.2s8-28.8-3.2-38.4l-86.4-73.6 88-86.4c8-9.6 8-27.2-1.6-36.8zM592 521.6l-112-198.4c-4.8-8-14.4-14.4-24-14.4-4.8 0-9.6 1.6-12.8 3.2-12.8 8-17.6 24-9.6 36.8l112 198.4c8 12.8 24 17.6 36.8 9.6 11.2-4.8 16-22.4 9.6-35.2zM772.8 424l-110.4-107.2c-6.4-4.8-12.8-8-19.2-8-8 0-14.4 3.2-19.2 8-9.6 11.2-9.6 27.2 0 38.4l88 86.4-86.4 73.6c-11.2 9.6-12.8 25.6-3.2 38.4 9.6 11.2 27.2 12.8 38.4 3.2l110.4-91.2c6.4-4.8 9.6-11.2 9.6-19.2 0-9.6-3.2-17.6-8-22.4zM689.6 755.2v0 0 179.2l177.6-177.6h-177.6z" />
<glyph unicode="&#xe944;" glyph-name="data-download" data-tags="data-download" d="M724.8 972.8h-532.8c-49.6 0-89.6-40-89.6-89.6v-368c0 0 0-476.8 0-476.8 0-49.6 40-89.6 89.6-89.6h640c49.6 0 89.6 40 89.6 89.6v736l-196.8 198.4zM686.4 435.2l-164.8-164.8c-4.8-4.8-12.8-4.8-19.2 0l-164.8 164.8c-3.2 3.2-4.8 11.2-3.2 14.4s6.4 8 9.6 8h83.2v140.8c0 6.4 6.4 12.8 12.8 12.8h142.4c3.2 0 4.8-1.6 8-3.2 1.6-1.6 3.2-4.8 3.2-8v-144h83.2c3.2 0 9.6-3.2 11.2-8 3.2-3.2 1.6-9.6-1.6-12.8zM691.2 755.2v0 0 179.2l177.6-177.6h-177.6z" />
<glyph unicode="&#xe945;" glyph-name="data-log-query" data-tags="data-log-query" d="M724.8 883.2h-67.2v32c0 32-25.6 57.6-57.6 57.6h-174.4c-32 0-57.6-25.6-57.6-57.6v-32h-65.6v-156.8h422.4v156.8zM513.6 782.4c-35.2 0-64 28.8-64 65.6 0 35.2 28.8 65.6 64 65.6s64-28.8 64-65.6c0-40-28.8-65.6-64-65.6zM897.6 832h-104v-172.8h-563.2v172.8h-102.4c-20.8 0-38.4-17.6-38.4-38.4v-801.6c0-20.8 17.6-38.4 38.4-38.4h768c20.8 0 38.4 17.6 38.4 38.4v801.6c1.6 20.8-16 38.4-36.8 38.4zM744 102.4c-16-16-40-16-56 0l-70.4 70.4c-28.8-17.6-62.4-28.8-99.2-28.8-102.4 0-184 83.2-184 184 0 102.4 83.2 184 184 184 102.4 0 185.6-83.2 185.6-184 0-36.8-11.2-70.4-28.8-99.2l70.4-70.4c12.8-14.4 12.8-40-1.6-56zM649.6 328c0-72.46-58.74-131.2-131.2-131.2s-131.2 58.74-131.2 131.2c0 72.46 58.74 131.2 131.2 131.2s131.2-58.74 131.2-131.2z" />
<glyph unicode="&#xe946;" glyph-name="swap-right" data-tags="swap-right" d="M515.2 889.6c19.2-16 403.2-355.2 438.4-387.2 22.4-19.2 22.4-67.2 0-86.4-25.6-19.2-416-361.6-444.8-387.2-22.4-19.2-60.8-6.4-60.8 32 0 16 0 121.6 0 256 0 0-278.4 0-371.2 0-9.6 0-22.4 6.4-22.4 22.4-3.2 108.8 0 185.6 0 262.4 0 9.6 12.8 19.2 22.4 19.2 92.8 0 371.2 0 371.2 0 0 128 0 227.2 0 240 3.2 35.2 41.6 51.2 67.2 28.8z" />
<glyph unicode="&#xe947;" glyph-name="swap-up" data-tags="swap-up" d="M83.2 464c16 19.2 355.2 403.2 384 438.4 19.2 22.4 67.2 22.4 86.4 0 22.4-25.6 364.8-416 390.4-444.8 19.2-22.4 6.4-60.8-32-60.8-16 0-121.6 0-256 0 0 0 0-278.4 0-371.2 0-9.6-6.4-22.4-22.4-22.4-108.8-3.2-185.6 0-262.4 0-9.6 0-19.2 12.8-19.2 22.4 0 92.8 0 371.2 0 371.2-128 0-227.2 0-240 0-35.2 3.2-51.2 41.6-28.8 67.2z" />
<glyph unicode="&#xe948;" glyph-name="table" data-tags="table" d="M976 908.8h-928c-27.2 0-48-20.8-48-48v-800c0-27.2 20.8-48 48-48h928c27.2 0 48 20.8 48 48v800c0 27.2-20.8 48-48 48zM384 854.4c27.2 0 48-22.4 48-48 0-27.2-22.4-48-48-48-27.2 0-48 22.4-48 48s20.8 48 48 48zM240 854.4c27.2 0 48-22.4 48-48 0-27.2-22.4-48-48-48-27.2 0-48 22.4-48 48s20.8 48 48 48zM96 854.4c27.2 0 48-22.4 48-48 0-27.2-22.4-48-48-48-27.2 0-48 22.4-48 48s20.8 48 48 48zM316.8 83.2h-248v156.8h248v-156.8zM316.8 307.2h-248v156.8h248v-156.8zM316.8 531.2h-248v158.4h248v-158.4zM638.4 83.2h-246.4v156.8h248v-156.8zM638.4 307.2h-246.4v156.8h248v-156.8zM638.4 531.2h-246.4v158.4h248v-158.4zM956.8 83.2h-248v156.8h248v-156.8zM956.8 307.2h-248v156.8h248v-156.8zM956.8 531.2h-248v158.4h248v-158.4z" />
<glyph unicode="&#xe949;" glyph-name="tel" data-tags="tel" d="M777.6-51.2v0h-4.8c-123.2 6.4-289.6 121.6-444.8 308.8l-56 70.4c-155.2 187.2-236.8 369.6-217.6 489.6 12.8 84.8 137.6 155.2 209.6 155.2 35.2 0 48-17.6 52.8-27.2 40-72 91.2-196.8 91.2-241.6v-3.2l-1.6-3.2c-9.6-24-28.8-35.2-46.4-44.8-24-12.8-36.8-22.4-38.4-46.4 0-8 6.4-41.6 108.8-168l43.2-52.8c102.4-121.6 134.4-134.4 142.4-136 24-3.2 36.8 8 54.4 27.2 12.8 14.4 28.8 32 54.4 35.2h6.4c44.8-9.6 158.4-83.2 224-137.6 9.6-6.4 25.6-24 12.8-65.6-20.8-65.6-108.8-160-190.4-160v0z" />
<glyph unicode="&#xe94a;" glyph-name="time" data-tags="time" d="M512 972.8c-283.2 0-512-228.8-512-512s228.8-512 512-512c283.2 0 512 228.8 512 512s-228.8 512-512 512zM768 404.8h-272c-6.4 0-11.2 1.6-16 3.2-14.4 6.4-25.6 20.8-25.6 38.4v272c0 22.4 19.2 41.6 41.6 41.6 24 0 41.6-19.2 41.6-41.6v-230.4h230.4c22.4 0 41.6-19.2 41.6-41.6 0-24-17.6-41.6-41.6-41.6z" />
<glyph unicode="&#xe94b;" glyph-name="unlock" data-tags="unlock" d="M544 275.2v-134.4h-64v134.4c-36.8 12.8-64 48-64 89.6 0 52.8 43.2 96 96 96s96-43.2 96-96c0-41.6-27.2-76.8-64-89.6zM736 748.8c0 123.2-100.8 224-224 224s-224-100.8-224-224v-128h-96c-35.2 0-64-28.8-64-64v-544c0-35.2 28.8-64 64-64h640c35.2 0 64 28.8 64 64v544c0 35.2-28.8 64-64 64h-448v128c0 70.4 57.6 128 128 128s128-57.6 128-128v0h96z" />
<glyph unicode="&#xe94c;" glyph-name="upload" data-tags="upload" d="M494.4 956.8c9.6 9.6 25.6 9.6 35.2 0l403.2-403.2c8-8 9.6-17.6 4.8-27.2-1.6-3.2-3.2-6.4-4.8-8-4.8-4.8-11.2-8-17.6-8h-208v-340.8c0-6.4-3.2-12.8-8-17.6s-11.2-8-17.6-8h-342.4c-14.4 0-25.6 11.2-25.6 25.6v340.8h-206.4c-9.6 0-19.2 6.4-24 16-3.2 9.6-1.6 20.8 4.8 27.2l406.4 403.2zM920 331.2v-270.4h-814.4v270.4h-105.6v-289.6c0-46.4 36.8-83.2 83.2-83.2h856c46.4 0 83.2 36.8 83.2 83.2v289.6h-102.4z" />
<glyph unicode="&#xe94d;" glyph-name="user" data-tags="user" d="M1024-3.2v-48h-1024v48c0 176 393.6 137.6 393.6 310.4 0 16 0 30.4 0 49.6-19.2 20.8-62.4 73.6-78.4 145.6-17.6 8-32 25.6-41.6 49.6-12.8 33.6-14.4 81.6 11.2 112 0 0 0 1.6 0 1.6-4.8 43.2-17.6 156.8 51.2 230.4 40 43.2 99.2 76.8 176 78.4 76.8-1.6 136-35.2 176-78.4 68.8-73.6 56-187.2 51.2-230.4 0 0 0-1.6 0-1.6 25.6-30.4 24-76.8 11.2-112-9.6-24-24-41.6-41.6-49.6-17.6-72-60.8-124.8-78.4-145.6 0-17.6 0-35.2 0-51.2-1.6-169.6 393.6-131.2 393.6-308.8v0 0z" />
<glyph unicode="&#xe94e;" glyph-name="view" data-tags="view" d="M512 796.8c-228.8 0-425.6-139.2-512-336 86.4-196.8 283.2-336 512-336s425.6 137.6 512 336c-86.4 196.8-283.2 336-512 336zM696 428.8c-12.8-76.8-75.2-139.2-152-152-128-20.8-236.8 88-216 216 12.8 76.8 75.2 139.2 152 152 128 20.8 236.8-88 216-216zM534.4 571.2c-78.4 14.4-147.2-52.8-131.2-131.2 8-44.8 43.2-80 88-88 78.4-14.4 147.2 52.8 131.2 131.2-9.6 43.2-44.8 78.4-88 88z" />
<glyph unicode="&#xe94f;" glyph-name="warning" data-tags="warning" d="M873.6 822.4v0c-92.8 94.4-220.8 150.4-363.2 150.4-139.2 0-265.6-56-358.4-147.2l-3.2-3.2c-92.8-91.2-148.8-220.8-148.8-361.6 0-142.4 56-270.4 148.8-363.2v0c92.8-92.8 220.8-150.4 361.6-150.4 139.2 0 267.2 56 360 147.2l3.2 3.2c92.8 94.4 150.4 222.4 150.4 363.2s-57.6 270.4-150.4 361.6zM512 179.2c-28.8 0-51.2 22.4-51.2 51.2 0 27.2 22.4 51.2 51.2 51.2 27.2 0 49.6-22.4 49.6-51.2s-22.4-51.2-49.6-51.2zM563.2 372.8c0-28.8-22.4-51.2-51.2-51.2s-51.2 22.4-51.2 51.2v320c0 28.8 22.4 51.2 51.2 51.2 27.2 0 51.2-22.4 51.2-51.2v-320z" />
<glyph unicode="&#xe950;" glyph-name="data-open-approval" data-tags="data-open-approval" d="M724.8 972.8h-532.8c-49.6 0-89.6-40-89.6-89.6v-368c0 0 0-476.8 0-476.8 0-49.6 40-89.6 89.6-89.6h640c49.6 0 89.6 40 89.6 89.6v736l-196.8 198.4zM518.4 160c-132.8 0-240 107.2-240 240s107.2 240 240 240 240-107.2 240-240c0-131.2-107.2-240-240-240zM704 755.2v179.2l179.2-179.2h-179.2zM643.2 504l-139.2-134.4-64 60.8c-14.4 12.8-36.8 12.8-49.6 0-14.4-12.8-14.4-35.2 0-48l88-86.4c6.4-6.4 16-9.6 25.6-9.6 8 0 16 3.2 24 8v0l1.6 1.6c0 0 0 0 0 0l163.2 158.4c14.4 12.8 14.4 35.2 0 48-14.4 16-36.8 16-49.6 1.6z" />
<glyph unicode="&#xe951;" glyph-name="data-query" data-tags="data-query" d="M724.8 972.8h-532.8c-49.6 0-89.6-40-89.6-89.6v-368c0 0 0-476.8 0-476.8 0-49.6 40-89.6 89.6-89.6h640c49.6 0 89.6 40 89.6 89.6v736l-196.8 198.4zM734.4 240c-16-16-40-16-56 0l-70.4 70.4c-28.8-17.6-62.4-28.8-99.2-28.8-102.4 0-184 83.2-184 184 0 102.4 83.2 184 184 184 102.4 0 184-83.2 184-184 0-36.8-11.2-70.4-28.8-99.2l70.4-70.4c16-16 16-40 0-56zM691.2 755.2v179.2l177.6-177.6h-177.6zM641.6 465.6c0-72.46-58.74-131.2-131.2-131.2s-131.2 58.74-131.2 131.2c0 72.46 58.74 131.2 131.2 131.2s131.2-58.74 131.2-131.2z" />
<glyph unicode="&#xe952;" glyph-name="data-sharing" data-tags="data-sharing" d="M724.8 972.8h-532.8c-49.6 0-89.6-40-89.6-89.6v-368c0 0 0-476.8 0-476.8 0-49.6 40-89.6 89.6-89.6h640c49.6 0 89.6 40 89.6 89.6v736l-196.8 198.4zM513.6 427.2c0-14.4-3.2-27.2-8-40l78.4-46.4c12.8 12.8 32 20.8 51.2 20.8 20.8 0 38.4-8 51.2-22.4 12.8-12.8 20.8-32 20.8-51.2 0-40-33.6-73.6-73.6-73.6s-73.6 33.6-73.6 73.6c0 8 1.6 16 3.2 24l-78.4 46.4c-1.6-1.6-3.2-3.2-3.2-4.8h-1.6c-17.6-17.6-43.2-28.8-70.4-28.8-54.4 0-100.8 44.8-100.8 100.8 0 54.4 44.8 100.8 100.8 100.8 27.2 0 52.8-11.2 70.4-28.8v0c1.6-1.6 3.2-3.2 3.2-3.2l78.4 46.4c-3.2 8-3.2 16-3.2 24 0 40 33.6 73.6 73.6 73.6s73.6-33.6 73.6-73.6c0-40-33.6-73.6-73.6-73.6-20.8 0-38.4 8-52.8 20.8v0l-78.4-46.4c11.2-11.2 12.8-25.6 12.8-38.4zM691.2 755.2v179.2l177.6-177.6h-177.6z" />
<glyph unicode="&#xe953;" glyph-name="data-upload" data-tags="data-upload" d="M723.2 972.8h-532.8c-49.6 0-89.6-40-89.6-89.6v-368c0 0 0-476.8 0-476.8 0-49.6 40-89.6 89.6-89.6h641.6c49.6 0 89.6 40 89.6 89.6v736l-198.4 198.4zM688 428.8c-1.6-4.8-8-8-11.2-8h-83.2v-144c0-3.2-1.6-4.8-3.2-8-1.6-1.6-4.8-3.2-8-3.2h-142.4c-6.4 0-12.8 6.4-12.8 12.8v140.8h-83.2c-4.8 0-8 3.2-9.6 8-1.6 3.2 0 11.2 3.2 14.4l164.8 164.8c4.8 4.8 12.8 4.8 19.2 0l166.4-166.4c1.6-1.6 1.6-6.4 0-11.2zM691.2 755.2v0 0 179.2l177.6-177.6h-177.6z" />
<glyph unicode="&#xe954;" glyph-name="db2" data-tags="db2" d="M92.8 764.8c6.4-12.8 17.6-36.8-3.2 8 0 0 1.6-3.2 3.2-8zM251.2 667.2c70.4-20.8 142.4-32 216-33.6 128-4.8 268.8 6.4 385.6 65.6 49.6 25.6 112 75.2 80 137.6-30.4 60.8-116.8 89.6-177.6 105.6-113.6 32-238.4 36.8-355.2 24-72-8-144-22.4-211.2-52.8-48-22.4-132.8-76.8-99.2-142.4 28.8-57.6 102.4-86.4 161.6-104zM942.4 168c0 46.4 0 92.8 0 139.2 0 16 0 30.4 0 44.8 0 1.6 0 24-1.6 22.4-9.6-11.2-12.8-24-27.2-35.2s-30.4-19.2-46.4-27.2c-1.6-1.6-3.2-1.6-6.4-1.6-4.8-3.2-11.2-6.4-17.6-8-1.6-1.6-4.8-1.6-6.4-1.6-14.4-6.4-30.4-11.2-44.8-16-19.2-4.8-38.4-9.6-57.6-16-73.6-20.8-156.8-25.6-233.6-24-80 1.6-168 8-244.8 32-4.8 1.6-9.6 3.2-14.4 4.8-9.6 3.2-19.2 6.4-27.2 9.6-38.4 12.8-75.2 28.8-105.6 51.2-6.4 4.8-14.4 11.2-19.2 17.6-1.6 3.2-6.4 16-8 16 0-62.4 0-124.8 0-185.6 0-27.2 0-54.4 0-83.2 6.4-9.6 8-22.4 14.4-32 8-11.2 17.6-20.8 27.2-28.8 20.8-17.6 44.8-28.8 68.8-40 64-28.8 134.4-41.6 203.2-49.6 112-12.8 228.8-8 337.6 17.6 19.2 4.8 38.4 9.6 54.4 16 9.6 3.2 19.2 6.4 28.8 11.2 6.4 3.2 14.4 6.4 20.8 9.6 3.2 1.6 4.8 3.2 8 3.2 17.6 8 33.6 19.2 49.6 30.4 4.8 3.2 8 6.4 12.8 11.2 1.6 1.6 3.2 3.2 4.8 4.8 3.2 4.8 8 8 11.2 12.8 1.6 1.6 1.6 3.2 3.2 4.8 6.4 9.6 11.2 19.2 12.8 32 1.6 6.4 0 14.4 0 22.4 3.2 9.6 3.2 22.4 3.2 35.2zM544 395.2c4.8 1.6 9.6 3.2 12.8 6.4s4.8 8 4.8 14.4c0 4.8-1.6 9.6-3.2 12.8-3.2 3.2-6.4 6.4-11.2 8s-14.4 1.6-30.4 1.6h-27.2v-44.8h30.4c12.8 0 20.8 0 24 1.6zM380.8 401.6c3.2 3.2 6.4 8 9.6 16 1.6 8 3.2 17.6 3.2 30.4s-1.6 22.4-3.2 28.8c-1.6 6.4-4.8 12.8-9.6 16s-9.6 6.4-16 8c-4.8 1.6-14.4 1.6-27.2 1.6h-14.4v-110.4h25.6c9.6 0 16 0 20.8 1.6 3.2 3.2 8 4.8 11.2 8zM536 467.2c6.4 0 9.6 3.2 12.8 6.4s4.8 8 4.8 12.8c0 4.8-1.6 9.6-4.8 12.8s-6.4 4.8-12.8 6.4c-3.2 0-12.8 0-28.8 0h-19.2v-38.4h24c12.8-1.6 20.8-1.6 24 0zM222.4 331.2c9.6-3.2 19.2-6.4 28.8-9.6 25.6-8 54.4-12.8 81.6-19.2 132.8-22.4 270.4-22.4 401.6 9.6 19.2 4.8 38.4 9.6 54.4 16 9.6 3.2 19.2 6.4 28.8 11.2 33.6 14.4 68.8 32 94.4 57.6 32 32 28.8 67.2 28.8 110.4 0 48 1.6 96 0 144 0 9.6 1.6 73.6-1.6 64-3.2-11.2-14.4-25.6-28.8-36.8s-32-19.2-48-27.2c-40-19.2-81.6-30.4-123.2-41.6-73.6-17.6-150.4-25.6-227.2-25.6-75.2 0-150.4 8-224 24-40 9.6-78.4 20.8-116.8 36.8-24 9.6-48 22.4-67.2 38.4-4.8 3.2-20.8 32-24 32 0-145.6-1.6-156.8 0-262.4 4.8-67.2 89.6-99.2 142.4-121.6zM686.4 500.8c-3.2 3.2-9.6 6.4-16 6.4s-11.2-1.6-16-6.4c-3.2-3.2-6.4-11.2-6.4-19.2l-32 3.2c1.6 17.6 8 30.4 17.6 38.4s22.4 11.2 36.8 11.2c16 0 28.8-4.8 38.4-12.8s14.4-19.2 14.4-33.6c0-8-1.6-14.4-4.8-20.8s-6.4-14.4-12.8-20.8c-3.2-4.8-11.2-11.2-20.8-20.8s-16-16-19.2-17.6c-3.2-3.2-4.8-6.4-6.4-9.6h62.4v-28.8h-112c1.6 11.2 4.8 22.4 11.2 32s17.6 24 35.2 40c14.4 12.8 22.4 22.4 27.2 27.2 4.8 6.4 6.4 12.8 6.4 19.2 3.2 3.2 0 8-3.2 12.8zM456 531.2h65.6c12.8 0 22.4 0 28.8-1.6s12.8-3.2 17.6-6.4c4.8-3.2 9.6-8 12.8-14.4s4.8-12.8 4.8-19.2c0-8-1.6-14.4-6.4-20.8s-9.6-11.2-17.6-14.4c9.6-3.2 17.6-8 24-14.4 4.8-6.4 8-16 8-25.6 0-8-1.6-14.4-4.8-22.4-3.2-6.4-8-12.8-14.4-17.6s-12.8-6.4-22.4-8c-4.8 0-19.2-1.6-40-1.6h-56v166.4zM288 531.2h60.8c14.4 0 24-1.6 32-3.2 9.6-3.2 17.6-8 25.6-16 6.4-8 12.8-16 16-27.2s4.8-24 4.8-40c0-14.4-1.6-25.6-4.8-35.2-4.8-12.8-9.6-22.4-17.6-28.8-6.4-6.4-14.4-9.6-24-12.8-8-1.6-17.6-3.2-30.4-3.2h-62.4v166.4z" />
<glyph unicode="&#xe955;" glyph-name="dispatch-monitoring" data-tags="dispatch-monitoring" d="M358.4 494.4h46.4c4.8-11.2 14.4-25.6 25.6-33.6 30.4-27.2 75.2-30.4 110.4-14.4 9.6 9.6 20.8 17.6 32 25.6 30.4 40 27.2 99.2-11.2 132.8-33.6 30.4-92.8 32-128 8 0 0 16-16 24-24 12.8-12.8-3.2-12.8-17.6-16 0 0-65.6-12.8-65.6-11.2-9.6-1.6-19.2-1.6-17.6 19.2l9.6 73.6c0 19.2 6.4 22.4 12.8 16 20.8-20.8 24-27.2 24-27.2 52.8 44.8 132.8 44.8 187.2-4.8 38.4-35.2 54.4-86.4 44.8-134.4 30.4 11.2 64 19.2 99.2 19.2 1.6 12.8 1.6 25.6 0 38.4l68.8 17.6c28.8-40 80-60.8 129.6-48 64 17.6 104 83.2 86.4 148.8-17.6 64-83.2 104-148.8 86.4-51.2-12.8-84.8-56-89.6-105.6l-68.8-17.6c-49.6 108.8-172.8 169.6-292.8 137.6-40-11.2-73.6-30.4-102.4-56l-83.2 59.2c4.8 17.6 4.8 38.4-1.6 57.6-17.6 64-83.2 104-148.8 86.4-60.8-12.8-99.2-78.4-83.2-144 17.6-64 83.2-104 148.8-86.4 16 4.8 28.8 11.2 41.6 20.8l76.8-54.4c-30.4-54.4-40-120-22.4-184 16-60.8 52.8-108.8 100.8-142.4l-43.2-89.6c-11.2 0-22.4-1.6-33.6-3.2-64-17.6-104-83.2-86.4-148.8 17.6-64 83.2-104 148.8-86.4 64 17.6 104 83.2 86.4 148.8-6.4 24-19.2 43.2-35.2 59.2l41.6 86.4c9.6-3.2 20.8-4.8 30.4-6.4 8 35.2 22.4 67.2 40 96-33.6 0-67.2 12.8-92.8 36.8-22.4 16-35.2 40-43.2 64zM742.4 312c-41.6 0-73.6-35.2-73.6-80s33.6-80 73.6-80c41.6 0 73.6 35.2 73.6 80s-32 80-73.6 80zM742.4 193.6c-20.8 0-36.8 17.6-36.8 40s16 40 36.8 40 36.8-17.6 36.8-40c0-22.4-16-40-36.8-40zM742.4 475.2c-4.8 0-11.2 0-16-1.6 0 0 0 0 0 1.6-107.2-6.4-195.2-81.6-222.4-182.4 0 0 0 0 1.6 0-4.8-20.8-9.6-41.6-9.6-64 0-136 110.4-246.4 246.4-246.4s246.4 110.4 246.4 246.4c0 136-110.4 246.4-246.4 246.4zM940.8 232c0 0 0 0 0 0s0 0 0 0 0 0 0 0c0-1.6 0-1.6 0 0 0-1.6 0-1.6 0-1.6s0 0 0-1.6c0 0 0 0 0-1.6v0c0 0 0 0 0 0s0 0 0 0 0 0 0 0 0 0 0 0 0 0 0 0c0-3.2-1.6-6.4-4.8-9.6-4.8-4.8-8-11.2-12.8-16-24-27.2-52.8-51.2-83.2-68.8-19.2-11.2-41.6-20.8-62.4-24-24-4.8-48-4.8-72 1.6-41.6 9.6-78.4 33.6-112 62.4-16 12.8-30.4 28.8-43.2 44.8-4.8 6.4-4.8 16 0 22.4 4.8 4.8 8 11.2 12.8 16 24 27.2 52.8 51.2 83.2 68.8 19.2 11.2 41.6 20.8 62.4 24 24 4.8 48 4.8 72-1.6 41.6-9.6 78.4-33.6 112-62.4 16-12.8 30.4-28.8 43.2-44.8 3.2-1.6 3.2-4.8 4.8-8z" />
<glyph unicode="&#xe956;" glyph-name="dispatch" data-tags="dispatch" d="M888 209.6c-25.6 0-49.6-8-70.4-20.8l-76.8 65.6c22.4 38.4 35.2 83.2 33.6 131.2 0 129.6-96 236.8-219.2 257.6v75.2c48 17.6 83.2 65.6 83.2 120 0 70.4-57.6 128-128 128s-128-57.6-128-128c0-54.4 35.2-102.4 83.2-120v-75.2c-124.8-20.8-220.8-129.6-219.2-260.8 0-43.2 11.2-83.2 28.8-118.4l-83.2-68.8c-17.6 9.6-36.8 14.4-59.2 14.4-70.4 0-128-57.6-128-128s57.6-128 128-128 128 57.6 128 128c0 17.6-3.2 33.6-9.6 48l76.8 64c48-44.8 112-72 182.4-72 65.6 0 126.4 25.6 171.2 65.6l80-68.8c-3.2-11.2-4.8-24-4.8-35.2 0-70.4 57.6-128 128-128s128 57.6 128 128-54.4 126.4-124.8 126.4zM659.2 302.4c-44.8-78.4-145.6-104-224-59.2-27.2 16-48 38.4-62.4 64l51.2 11.2c8-11.2 22.4-24 35.2-32 52.8-30.4 124.8-11.2 153.6 41.6 30.4 51.2 11.2 121.6-41.6 152-44.8 25.6-110.4 14.4-144-20.8 0 0 22.4-14.4 32-20.8 17.6-11.2 0-16-16-22.4 0 0-70.4-28.8-70.4-28.8-9.6-3.2-20.8-6.4-24 17.6l-8 84.8c-4.8 20.8 1.6 27.2 11.2 22.4 28.8-19.2 33.6-24 33.6-24 49.6 62.4 137.6 80 209.6 40 81.6-48 108.8-148.8 64-225.6z" />
<glyph unicode="&#xe957;" glyph-name="distribute" data-tags="distribute" d="M1020.8 918.4c-1.6 3.2-8 12.8-24 17.6-20.8 4.8-46.4-1.6-75.2-20.8l-889.6-470.4c-8-3.2-32-16-32-40 0-16 11.2-27.2 33.6-36.8l281.6-92.8 41.6-17.6 459.2 451.2-356.8-492.8 57.6-24 283.2-94.4c4.8-1.6 12.8-4.8 24-4.8 6.4 0 14.4 1.6 22.4 4.8 19.2 9.6 30.4 32 33.6 62.4l144 742.4c0 6.4 0 11.2-3.2 16zM593.6 134.4l-112 27.2c-4.8 1.6-11.2 0-16-3.2s-6.4-9.6-6.4-14.4v-140.8c0-8 4.8-14.4 11.2-17.6 3.2-1.6 6.4-1.6 9.6-1.6 4.8 0 8 1.6 11.2 4.8l112 113.6c4.8 4.8 6.4 11.2 4.8 17.6-3.2 8-8 12.8-14.4 14.4z" />
<glyph unicode="&#xe958;" glyph-name="distribution-monitoring" data-tags="distribution-monitoring" d="M825.6 406.4c24 0 46.4-3.2 67.2-11.2l97.6 505.6c1.6 4.8 0 9.6-3.2 14.4-1.6 3.2-8 12.8-24 16-19.2 4.8-44.8-1.6-73.6-19.2l-859.2-454.4c-8-3.2-32-16-30.4-38.4 0-14.4 11.2-27.2 33.6-35.2l272-89.6 40-16 443.2 436.8-344-480 56-22.4 102.4-33.6c0 1.6 0 3.2 0 6.4 0 121.6 99.2 220.8 222.4 220.8zM574.4 156.8l-107.2 27.2c-4.8 1.6-11.2 0-16-3.2s-6.4-8-6.4-14.4v-136c0-8 4.8-14.4 11.2-16 3.2-1.6 6.4-1.6 9.6-1.6s8 1.6 11.2 4.8l107.2 110.4c4.8 4.8 6.4 11.2 4.8 17.6-3.2 4.8-8 9.6-14.4 11.2zM833.6 243.2c-32 0-57.6-27.2-57.6-62.4s25.6-62.4 57.6-62.4c32 0 57.6 27.2 57.6 62.4s-25.6 62.4-57.6 62.4zM833.6 150.4c-16 0-28.8 14.4-28.8 32s12.8 32 28.8 32c16 0 28.8-14.4 28.8-32 0-19.2-12.8-32-28.8-32zM833.6 369.6c-105.6 0-190.4-84.8-190.4-190.4s84.8-190.4 190.4-190.4c105.6 0 190.4 84.8 190.4 190.4s-84.8 190.4-190.4 190.4zM988.8 177.6c0 0 0 0 0 0s0 0 0 0 0 0 0 0c0-1.6 0-1.6 0 0 0-3.2-1.6-6.4-3.2-8-3.2-4.8-6.4-8-9.6-12.8-19.2-20.8-41.6-40-65.6-52.8-16-8-32-16-49.6-19.2-19.2-3.2-38.4-3.2-56 1.6-32 8-62.4 27.2-88 49.6-11.2 11.2-24 22.4-33.6 35.2-4.8 6.4-4.8 12.8 0 17.6 3.2 4.8 6.4 8 9.6 12.8 19.2 20.8 41.6 40 65.6 52.8 16 8 32 16 49.6 19.2 19.2 3.2 38.4 3.2 56-1.6 32-8 62.4-27.2 88-49.6 11.2-11.2 24-22.4 33.6-35.2 1.6-1.6 3.2-4.8 3.2-6.4 0 0 0 0 0 0s0 0 0 0 0 0 0 0 0 0 0 0 0 0 0 0c0-1.6 0-1.6 0-3.2 0 0 0 0 0 0v0c0 0 0 0 0 0z" />
<glyph unicode="&#xe959;" glyph-name="file-upload" data-tags="file-upload" d="M952 753.6h-292.8c-57.6 0-116.8 91.2-174.4 129.6-12.8 9.6-27.2 17.6-44.8 17.6h-368c-40 0-73.6-33.6-73.6-73.6v-732.8c0-20.8 8-38.4 20.8-51.2s32-20.8 51.2-20.8h880c40 0 73.6 32 73.6 73.6v584c1.6 41.6-32 73.6-72 73.6zM689.6 392c-1.6-4.8-8-8-11.2-8h-83.2v-144c0-3.2-1.6-4.8-3.2-8-1.6-1.6-4.8-3.2-8-3.2h-142.4c-6.4 0-12.8 6.4-12.8 12.8v142.4h-83.2c-4.8 0-8 3.2-9.6 8s0 11.2 3.2 14.4l163.2 166.4c4.8 4.8 12.8 4.8 19.2 0l166.4-166.4c1.6-3.2 3.2-9.6 1.6-14.4z" />
<glyph unicode="&#xe95a;" glyph-name="ftp" data-tags="ftp" d="M600 16v201.6c0 41.6 32 83.2 75.2 83.2h209.6l1.6 473.6-196.8 195.2h-529.6c-48 0-89.6-40-89.6-89.6v-364.8c0 0 0-472 0-472 0-49.6 40-89.6 89.6-89.6h473.6c-20.8 12.8-33.6 35.2-33.6 62.4zM689.6 918.4l144-144h-144v144zM361.6 576h-108.8v-52.8h94.4v-38.4h-94.4v-96h-44.8v224h153.6v-36.8zM561.6 576h-67.2v-187.2h-44.8v187.2h-67.2v38.4h179.2v-38.4zM590.4 614.4h73.6c27.2 0 44.8-1.6 54.4-3.2 12.8-3.2 24-11.2 32-22.4s12.8-25.6 12.8-43.2c0-14.4-3.2-25.6-8-35.2s-11.2-16-19.2-22.4c-8-4.8-16-9.6-24-11.2-11.2-1.6-27.2-3.2-46.4-3.2h-28.8v-84.8h-44.8v225.6zM691.2 574.4c-4.8 1.6-16 1.6-32 1.6h-22.4v-64h25.6c17.6 0 30.4 1.6 35.2 3.2 6.4 1.6 11.2 6.4 14.4 11.2s4.8 11.2 4.8 17.6c0 8-3.2 14.4-8 20.8s-11.2 9.6-17.6 9.6zM896 268.8h-193.6c-32 0-57.6-25.6-57.6-56v-198.4c0-30.4 25.6-56 57.6-56h193.6c32 0 57.6 25.6 57.6 56v198.4c0 30.4-25.6 56-57.6 56zM779.2 19.2h-32v129.6h-38.4l70.4 68.8v-198.4zM819.2 11.2v198.4h32v-128h38.4l-70.4-70.4z" />
<glyph unicode="&#xe95b;" glyph-name="gather-monitoring" data-tags="gather-monitoring" d="M604.8 483.2h-86.4v83.2c0 20.8-16 36.8-36.8 36.8h-24c-20.8 0-36.8-16-36.8-36.8v-83.2h-86.4c-20.8 0-36.8-16-36.8-36.8v-22.4c0-20.8 16-36.8 36.8-36.8h86.4v-88c0-20.8 16-36.8 36.8-36.8h24c3.2 0 6.4 0 8 1.6 6.4 28.8 16 56 28.8 80v44.8h30.4c24 30.4 54.4 56 89.6 75.2-6.4 11.2-19.2 19.2-33.6 19.2zM236.8 150.4v385.6h-107.2l334.4 334.4 334.4-334.4h-100.8v-51.2c25.6 8 54.4 11.2 81.6 11.2 48 0 92.8-11.2 132.8-32 4.8 4.8 8 11.2 9.6 16 14.4 33.6-1.6 73.6-44.8 118.4l-345.6 347.2c-36.8 36.8-97.6 36.8-134.4 0l-347.2-347.2c-44.8-44.8-59.2-83.2-44.8-118.4 6.4-16 25.6-43.2 80-43.2h51.2v-296c0-49.6 40-89.6 89.6-89.6h300.8c-17.6 30.4-30.4 64-36.8 99.2h-252.8zM779.2 284.8c-41.6 0-73.6-35.2-73.6-80 0-43.2 33.6-80 73.6-80 41.6 0 73.6 35.2 73.6 80s-32 80-73.6 80zM779.2 166.4c-20.8 0-36.8 17.6-36.8 40s16 40 36.8 40 36.8-19.2 36.8-41.6c0-20.8-16-38.4-36.8-38.4zM779.2 446.4c-134.4 0-244.8-108.8-244.8-244.8 0-134.4 108.8-244.8 244.8-244.8 134.4 0 244.8 108.8 244.8 244.8s-108.8 244.8-244.8 244.8zM976 200c0 0 0 0 0 0s0 0 0 0 0 0 0 0 0 0 0 0c0-4.8-1.6-8-4.8-9.6-4.8-4.8-8-11.2-12.8-16-24-27.2-52.8-51.2-83.2-67.2-19.2-11.2-40-19.2-62.4-24-24-4.8-48-4.8-72 1.6-41.6 9.6-78.4 33.6-112 62.4-16 12.8-30.4 27.2-43.2 44.8-4.8 6.4-4.8 16 0 22.4 4.8 4.8 8 11.2 12.8 16 24 27.2 52.8 51.2 83.2 67.2 19.2 11.2 40 19.2 62.4 24 24 4.8 48 4.8 72-1.6 41.6-9.6 78.4-33.6 112-62.4 16-12.8 30.4-27.2 43.2-44.8 1.6-3.2 3.2-4.8 4.8-9.6 0 0 0 0 0 0s0 0 0 0 0 0 0 0 0 0 0 0 0 0 0 0 0-1.6 0-3.2c0 1.6 0 1.6 0 0v0c0 1.6 0 0 0 0z" />
<glyph unicode="&#xe95c;" glyph-name="gather" data-tags="gather" d="M667.2 489.6h-84.8v81.6c0 20.8-16 36.8-36.8 36.8h-65.6c-20.8 0-36.8-16-36.8-36.8v-81.6h-81.6c-20.8 0-36.8-16-36.8-36.8v-65.6c0-20.8 16-36.8 36.8-36.8h81.6v-84.8c0-20.8 16-36.8 36.8-36.8h65.6c20.8 0 36.8 16 36.8 36.8v84.8h84.8c20.8 0 36.8 16 36.8 36.8v65.6c0 19.2-17.6 36.8-36.8 36.8zM955.2 563.2l-380.8 380.8c-19.2 19.2-44.8 28.8-70.4 28.8-27.2 0-51.2-9.6-70.4-28.8l-380.8-380.8c-46.4-46.4-62.4-88-48-123.2 8-20.8 30.4-44.8 83.2-44.8h62.4v-332.8c0-51.2 41.6-92.8 92.8-92.8h529.6c51.2 0 92.8 41.6 92.8 92.8v332.8h54.4c54.4 0 75.2 24 83.2 44.8 14.4 35.2-1.6 76.8-48 123.2zM766.4 492.8v-425.6h-518.4v425.6h-126.4c0 0 0 0 0 0l382.4 382.4 380.8-380.8c0 0 0 0 0 0h-118.4z" />
<glyph unicode="&#xe95d;" glyph-name="gbase" data-tags="gbase" d="M54.4 523.2c17.6 0 110.4 0 110.4 0l24 38.4c0 0-131.2 0-144 0-8 0-43.2-8-44.8-49.6s0-48 0-62.4c0-9.6 8-48 46.4-46.4 38.4 0 113.6 0 113.6 0s27.2-3.2 27.2 24c0 6.4 0 51.2 0 51.2s1.6 22.4-27.2 22.4c-32 0-67.2 0-67.2 0v-36.8h56l1.6-24h-100.8c0 0-12.8-1.6-12.8 14.4 0 14.4 0 57.6 0 57.6s1.6 11.2 17.6 11.2zM400 464c-8 16-19.2 16-8 27.2 17.6 16 12.8 70.4-38.4 70.4-70.4 0-145.6 0-145.6 0v-158.4c0 0 113.6 0 156.8 0 33.6-1.6 46.4 38.4 35.2 60.8zM244.8 521.6c0 0 83.2 0 110.4 0 11.2 0 14.4-4.8 14.4-11.2 0-9.6-4.8-12.8-14.4-12.8-28.8 0-110.4 0-110.4 0v24zM355.2 438.4c-28.8 0-110.4 0-110.4 0v24c0 0 83.2 1.6 110.4 0 11.2 0 14.4-6.4 14.4-12.8 0-9.6-4.8-11.2-14.4-11.2zM528 560c-19.2 0-20.8 0-27.2 0-4.8 0-8 0-11.2-6.4-4.8-9.6-88-152-88-152h43.2l22.4 38.4h96l20.8-38.4h43.2c0 0-60.8 108.8-88 152-1.6 3.2-3.2 6.4-11.2 6.4zM484.8 473.6l28.8 48 27.2-48h-56zM772.8 497.6c-20.8 3.2-81.6 1.6-110.4 1.6-4.8 0-8 0-8 11.2 0 14.4 4.8 12.8 11.2 12.8 48 0 118.4 0 118.4 0l24 38.4c0 0-136 0-150.4 0s-40-14.4-40-48c0-32 16-49.6 41.6-49.6s73.6 0 99.2 0c9.6 0 9.6-1.6 9.6-11.2 0-11.2 0-12.8-9.6-12.8s-142.4 0-142.4 0l20.8-36.8c0 0 92.8 0 124.8 0 24 0 44.8 12.8 44.8 49.6 1.6 24-11.2 41.6-33.6 44.8zM1003.2 462.4l20.8 36.8h-156.8c0 0-4.8 22.4 14.4 22.4 81.6 1.6 121.6 0 121.6 0l22.4 36.8c0 0-140.8 0-148.8 0-11.2 0-46.4-6.4-46.4-41.6 0-40 0-56 0-72s12.8-41.6 49.6-41.6c27.2 0 123.2 0 123.2 0l20.8 36.8c0 0-89.6-1.6-140.8 0-6.4 0-19.2 0-16 25.6 30.4-3.2 136-3.2 136-3.2z" />
<glyph unicode="&#xe95e;" glyph-name="hadoop-monitoring" data-tags="hadoop-monitoring" d="M433.6 739.2c36.8 16 64 24 88 22.4h3.2c24-1.6 46.4-12.8 72-33.6l6.4-4.8c6.4-6.4 12.8-11.2 19.2-16-3.2-1.6-4.8-4.8-4.8-8 0-6.4 4.8-11.2 11.2-11.2h1.6c4.8 1.6 11.2 0 17.6-1.6h1.6c1.6-1.6 3.2-1.6 3.2-3.2h1.6c9.6-6.4 12.8-8 19.2-16 3.2-3.2 4.8-8 6.4-11.2-3.2 0-6.4-1.6-9.6-3.2v0 0l-1.6-1.6c-4.8-1.6-12.8-4.8-17.6-4.8-4.8-1.6-8-4.8-8-9.6s3.2-8 6.4-9.6c1.6 0 3.2-1.6 4.8-1.6 0-1.6 0-4.8 1.6-6.4-3.2-1.6-4.8-4.8-4.8-9.6 0-3.2 1.6-6.4 3.2-8-6.4-3.2-9.6-9.6-12.8-16-1.6-3.2-3.2-8-4.8-11.2-1.6-6.4-3.2-11.2-6.4-17.6-1.6-1.6-1.6-3.2-1.6-4.8 0-6.4 4.8-11.2 11.2-11.2 3.2 0 6.4 1.6 8 4.8 4.8 6.4 8 11.2 11.2 16 0-1.6 0-4.8 0-6.4 0-8-1.6-14.4-3.2-20.8 0-1.6-1.6-3.2-1.6-4.8 0-6.4 4.8-11.2 11.2-11.2 3.2 0 8 3.2 9.6 6.4 4.8 9.6 8 17.6 9.6 25.6 1.6 6.4 3.2 12.8 6.4 17.6 0 0 3.2 3.2 4.8 4.8 0-4.8 1.6-9.6 0-12.8-1.6-14.4-4.8-35.2-6.4-41.6 0-1.6 0-1.6 0-3.2 0-6.4 4.8-11.2 11.2-11.2 3.2 0 6.4 1.6 8 4.8 8 11.2 11.2 27.2 14.4 41.6 0 3.2 1.6 4.8 1.6 8 3.2 17.6 3.2 36.8 0 49.6 1.6 0 3.2 0 4.8-1.6 6.4-1.6 14.4-1.6 20.8 1.6 17.6 6.4 30.4 19.2 40 38.4 12.8-33.6 19.2-86.4 16-121.6-1.6-12.8-4.8-24-8-35.2 11.2-3.2 22.4-6.4 32-9.6 4.8 12.8 6.4 27.2 8 43.2 4.8 43.2-3.2 110.4-24 148.8-4.8 8-12.8 14.4-24 19.2-6.4 1.6-11.2 3.2-17.6 3.2s-12.8-3.2-17.6-8c-4.8-4.8-8-11.2-12.8-16-3.2-4.8-6.4-9.6-9.6-12.8s-6.4-4.8-11.2-6.4c-4.8 11.2-12.8 22.4-20.8 33.6-9.6 11.2-17.6 16-28.8 24-14.4 8-25.6 19.2-38.4 30.4-6.4 4.8-11.2 9.6-17.6 14.4-30.4 25.6-59.2 38.4-91.2 40-28.8 3.2-60.8-3.2-100.8-20.8-35.2-14.4-54.4-36.8-73.6-62.4-14.4-1.6-25.6-6.4-36.8-17.6-9.6-8-17.6-16-27.2-27.2l-27.2-28.8c0 0 0 0-1.6-1.6l-4.8-6.4c-6.4-8-12.8-16-20.8-24v0 0l-3.2-4.8c-11.2-14.4-20.8-27.2-25.6-36.8l-1.6-3.2c-3.2-6.4-6.4-11.2-8-17.6-6.4-14.4-11.2-24-9.6-35.2 0-11.2 6.4-20.8 16-33.6l4.8-4.8c11.2-14.4 16-22.4 20.8-35.2-4.8-11.2-6.4-20.8-8-33.6v-1.6c0-3.2 1.6-4.8 3.2-6.4 19.2-20.8 33.6-35.2 52.8-40s36.8-3.2 52.8 4.8c6.4 3.2 12.8 6.4 19.2 11.2 25.6 14.4 49.6 27.2 76.8 28.8 4.8 0 8 3.2 9.6 6.4 3.2 6.4 4.8 16 8 22.4 11.2 40 6.4 75.2 0 105.6-6.4 28.8-8 56-9.6 83.2 0 6.4-4.8 11.2-11.2 11.2-4.8 0-9.6-4.8-11.2-9.6-8-32-8-59.2-3.2-89.6 4.8-25.6 8-54.4 1.6-80-3.2-8-4.8-12.8-6.4-17.6-27.2-3.2-51.2-17.6-73.6-28.8-6.4-3.2-11.2-6.4-17.6-9.6-9.6-4.8-19.2-6.4-32-1.6-9.6 3.2-16 8-27.2 20.8 0 11.2 3.2 17.6 9.6 28.8 12.8 24 25.6 46.4 38.4 67.2 0 1.6 0 1.6 1.6 3.2l1.6 3.2-11.2 6.4-1.6 1.6-3.2-1.6-11.2-12.8c-9.6-11.2-19.2-24-28.8-35.2-4.8 8-9.6 14.4-16 24l-1.6 1.6c-4.8 6.4-8 11.2-8 16 0 3.2 1.6 8 4.8 16 3.2 6.4 6.4 12.8 9.6 19.2l22.4 32c11.2 11.2 20.8 24 30.4 35.2 16 17.6 30.4 36.8 48 52.8 8 8 11.2 9.6 16 11.2 3.2 1.6 9.6 1.6 16 3.2l4.8 1.6c19.2 3.2 36.8 6.4 57.6 11.2 4.8 1.6 6.4 6.4 6.4 9.6 0 6.4-4.8 11.2-11.2 11.2-9.6-1.6-20.8-1.6-30.4-1.6 12.8 9.6 22.4 17.6 40 25.6zM734.4 628.8v0 0 0zM521.6 403.2c-16 6.4-30.4 12.8-44.8 24 0 1.6-3.2 1.6-6.4 1.6-6.4 0-11.2-4.8-11.2-11.2 0-3.2 1.6-4.8 3.2-6.4s3.2-4.8 6.4-8c3.2-3.2 8-8 12.8-12.8l19.2-12.8c8 8 14.4 17.6 20.8 25.6zM353.6 609.6c0-1.6 3.2-4.8 4.8-4.8s4.8 1.6 4.8 4.8c3.2 20.8 9.6 27.2 20.8 43.2 12.8 3.2 25.6 8 38.4 12.8 1.6 0 3.2 3.2 3.2 4.8 0 3.2-3.2 4.8-4.8 4.8 0 0 0 0 0 0s0 0 0 0c-16-1.6-32-3.2-48-4.8-6.4 0-11.2 0-16-1.6s-8-4.8-12.8-9.6-16-25.6-20.8-41.6c-6.4-16-9.6-33.6-12.8-43.2 0 0 0-1.6 0-1.6 0-3.2 3.2-4.8 4.8-4.8s4.8 1.6 4.8 3.2c3.2 8 9.6 24 16 38.4 4.8 9.6 8 17.6 12.8 24 1.6-8 3.2-14.4 4.8-24zM540.8 662.4c4.8 1.6 6.4 6.4 6.4 9.6 0 6.4-4.8 11.2-11.2 11.2h-1.6c0 0-1.6 0-1.6 0-22.4-4.8-35.2-12.8-43.2-24-8-9.6-9.6-22.4-6.4-40 1.6-4.8 4.8-8 9.6-8s9.6 3.2 9.6 8c8 16 12.8 30.4 38.4 43.2zM937.6 942.4h-841.6c-48 0-86.4-38.4-86.4-86.4v-593.6c0-48 38.4-86.4 86.4-86.4h355.2c-1.6 11.2-3.2 24-3.2 36.8 0 20.8 1.6 40 6.4 59.2h-347.2v574.4h820.8v-427.2c51.2-48 84.8-115.2 89.6-190.4 4.8 9.6 6.4 22.4 6.4 33.6v593.6c0 48-38.4 86.4-86.4 86.4zM619.2 596.8c0 3.2-3.2 4.8-4.8 4.8 0 0 0 0 0 0-6.4 0-12.8-1.6-20.8-3.2 0 1.6 0 3.2-1.6 4.8-1.6 4.8-6.4 8-9.6 11.2 3.2 1.6 6.4 3.2 9.6 6.4 1.6 1.6 1.6 3.2 1.6 4.8 0 3.2-3.2 4.8-4.8 4.8v0 0 0c0 0-1.6 0-1.6 0-4.8-3.2-11.2-3.2-19.2-4.8-6.4-1.6-14.4-3.2-20.8-8s-11.2-11.2-17.6-17.6c-6.4-6.4-11.2-14.4-16-17.6-1.6-1.6-1.6-3.2-1.6-3.2 0-3.2 3.2-4.8 4.8-4.8 0 0 1.6 0 1.6 0 4.8 1.6 9.6 6.4 14.4 9.6 0-1.6 0-3.2 1.6-4.8 1.6-4.8 6.4-8 9.6-11.2-3.2-3.2-4.8-8-6.4-12.8 0 0 0-1.6 0-1.6 0-3.2 3.2-4.8 4.8-4.8s3.2 1.6 4.8 1.6c17.6 20.8 44.8 36.8 68.8 44.8 1.6-3.2 3.2-1.6 3.2 1.6zM582.4 462.4c-3.2 0-6.4-1.6-8-1.6-6.4-1.6-12.8-3.2-17.6-8s-4.8-11.2-6.4-17.6c0-1.6 0-4.8-1.6-8 16 12.8 32 25.6 49.6 35.2-1.6 1.6-3.2 1.6-6.4 1.6h-1.6c-1.6 0-4.8 0-8-1.6zM732.8 446.4c-129.6 0-233.6-104-233.6-233.6s104-233.6 233.6-233.6 233.6 104 233.6 233.6-104 233.6-233.6 233.6zM918.4 224c1.6-1.6 3.2-4.8 3.2-8 0 0 0 0 0 0s0 0 0 0 0 0 0 0 0 0 0 0 0 0 0 0 0 0 0 0 0 0 0 0v0c0 0 0 0 0 0s0 0 0 0 0 0 0 0 0 0 0 0 0 0 0 0c0-3.2-1.6-6.4-3.2-8-3.2-4.8-8-9.6-12.8-14.4-24-25.6-51.2-48-80-65.6-19.2-11.2-40-19.2-60.8-24-22.4-4.8-46.4-4.8-68.8 1.6-40 9.6-75.2 32-107.2 59.2-14.4 12.8-28.8 27.2-41.6 43.2-4.8 6.4-4.8 14.4 0 22.4 3.2 4.8 8 9.6 12.8 14.4 24 25.6 51.2 48 80 65.6 19.2 11.2 40 19.2 60.8 24 22.4 4.8 46.4 4.8 68.8-1.6 40-9.6 75.2-32 107.2-59.2 16-20.8 30.4-33.6 41.6-49.6zM732.8 292.8c-40 0-70.4-33.6-70.4-76.8 0-41.6 32-76.8 70.4-76.8 40 0 70.4 33.6 70.4 76.8 1.6 41.6-30.4 76.8-70.4 76.8zM732.8 177.6c-19.2 0-35.2 17.6-35.2 38.4s16 38.4 35.2 38.4c19.2 0 35.2-17.6 35.2-38.4 1.6-20.8-14.4-38.4-35.2-38.4z" />
<glyph unicode="&#xe95f;" glyph-name="hadoop" data-tags="hadoop" d="M673.6 684.8c3.2 0 4.8 3.2 4.8 6.4s-3.2 6.4-6.4 6.4c0 0 0 0-1.6 0 0 0-1.6 0-1.6 0-24-6.4-40-14.4-48-27.2s-9.6-27.2-6.4-43.2c0-3.2 3.2-4.8 6.4-4.8s4.8 1.6 6.4 4.8c6.4 22.4 12.8 41.6 46.4 57.6zM68.8 606.4c0 3.2-3.2 6.4-6.4 6.4v0c-1.6 0-3.2 0-3.2-1.6-9.6-6.4-17.6-12.8-24-19.2-1.6 1.6-3.2 3.2-6.4 3.2-1.6 0-3.2 0-3.2-1.6-11.2-8-17.6-12.8-20.8-20.8-4.8-8-4.8-16-3.2-28.8 0-3.2 3.2-6.4 6.4-6.4 1.6 0 1.6 0 3.2 0 0-9.6 0-19.2 1.6-32 0-3.2 3.2-4.8 6.4-4.8s6.4 1.6 6.4 4.8c3.2 44.8 11.2 62.4 43.2 96 0 1.6 0 3.2 0 4.8zM433.6 758.4c0-3.2 3.2-6.4 6.4-6.4 1.6 0 4.8 1.6 6.4 3.2 19.2 40 33.6 52.8 75.2 73.6 3.2 0 4.8 3.2 4.8 6.4s-3.2 6.4-6.4 6.4c0 0 0 0-1.6 0v0c0 0-1.6 0-1.6 0-11.2-3.2-20.8-4.8-30.4-9.6 0 3.2-3.2 4.8-6.4 4.8 0 0-1.6 0-1.6 0-12.8-3.2-20.8-6.4-27.2-11.2-6.4-6.4-9.6-14.4-12.8-27.2 0 0 0-1.6 0-1.6 0-3.2 3.2-6.4 6.4-6.4 0 0 0 0 0 0-3.2-8-8-17.6-11.2-30.4 0 0 0-1.6 0-1.6zM761.6 606.4c-8 0-16-1.6-24-4.8 0 1.6 0 3.2-1.6 6.4-3.2 6.4-6.4 9.6-11.2 12.8 3.2 1.6 8 4.8 11.2 8 1.6 1.6 1.6 3.2 1.6 4.8 0 3.2-3.2 6.4-6.4 6.4v0 0 0c-1.6 0-1.6 0-3.2 0-6.4-3.2-14.4-4.8-22.4-6.4s-17.6-3.2-24-9.6c-8-4.8-14.4-12.8-20.8-22.4-6.4-8-14.4-17.6-19.2-22.4-1.6-1.6-1.6-3.2-1.6-4.8 0-3.2 3.2-6.4 6.4-6.4 0 0 1.6 0 1.6 0 6.4 3.2 12.8 6.4 17.6 11.2 0-1.6 0-4.8 1.6-6.4 3.2-6.4 6.4-9.6 11.2-12.8-3.2-4.8-6.4-9.6-8-14.4 0 0 0-1.6 0-1.6 0-3.2 3.2-6.4 6.4-6.4 1.6 0 3.2 1.6 4.8 1.6 20.8 25.6 52.8 44.8 81.6 52.8 3.2 0 4.8 3.2 4.8 6.4 1.6 6.4-1.6 8-6.4 8 1.6 0 0 0 0 0zM532.8 696c0 0 0 0 0 0-19.2-3.2-38.4-4.8-57.6-6.4-8 0-12.8-1.6-17.6-3.2s-9.6-4.8-14.4-11.2c-11.2-9.6-19.2-30.4-25.6-49.6s-12.8-40-14.4-52.8c0 0 0-1.6 0-1.6 0-3.2 3.2-6.4 6.4-6.4s4.8 1.6 6.4 4.8c4.8 9.6 11.2 28.8 19.2 44.8 4.8 11.2 11.2 20.8 16 28.8 0-8 0-14.4 1.6-27.2 0-3.2 3.2-4.8 6.4-4.8s6.4 1.6 6.4 4.8c3.2 24 11.2 33.6 24 51.2 16 4.8 30.4 9.6 46.4 16 3.2 1.6 4.8 3.2 4.8 6.4-1.6 3.2-3.2 6.4-8 6.4 0 0 0 0 0 0zM995.2 688c-4.8 9.6-14.4 16-25.6 20.8-4.8 1.6-11.2 3.2-17.6 3.2s-12.8-1.6-16-6.4c-11.2-11.2-17.6-25.6-27.2-33.6-4.8-4.8-12.8-8-20.8-11.2-6.4 16-16 30.4-27.2 43.2-9.6 12.8-20.8 19.2-33.6 27.2-24 16-43.2 35.2-67.2 54.4-35.2 28.8-68.8 44.8-105.6 46.4v0c-35.2 1.6-73.6-8-116.8-27.2-41.6-17.6-62.4-43.2-86.4-75.2-14.4-1.6-27.2-4.8-43.2-19.2-11.2-9.6-22.4-20.8-32-32-80-12.8-132.8-28.8-185.6-76.8-22.4-19.2-36.8-41.6-49.6-65.6-11.2-12.8-22.4-25.6-35.2-30.4-1.6 0-3.2-1.6-4.8-1.6 0 0 0 0 0 0 4.8 4.8 8 11.2 9.6 19.2 1.6 4.8 1.6 9.6 1.6 14.4 1.6-3.2 3.2-4.8 6.4-8 1.6-1.6 3.2-1.6 4.8-1.6 3.2 0 6.4 1.6 6.4 4.8 1.6 8 3.2 17.6 1.6 27.2-1.6 8-4.8 14.4-11.2 20.8 1.6 4.8 4.8 11.2 6.4 17.6 0 0 0 1.6 0 1.6 0 3.2-3.2 6.4-6.4 6.4 0 0-1.6 0-1.6 0-8-1.6-16-4.8-25.6-11.2s-20.8-14.4-30.4-24c-9.6-9.6-16-20.8-17.6-33.6-1.6-11.2 1.6-22.4 11.2-33.6 0 0 0 0 0 0 3.2-11.2 4.8-19.2 8-27.2 4.8-11.2 14.4-19.2 25.6-20.8 6.4-1.6 14.4-1.6 20.8 0-3.2-20.8-4.8-44.8-1.6-75.2 0-8 1.6-16 3.2-24-3.2-9.6-8-20.8-11.2-30.4-9.6-9.6-20.8-19.2-30.4-30.4-4.8-4.8-9.6-8-12.8-14.4-3.2-4.8-1.6-11.2-1.6-19.2 3.2-19.2 12.8-41.6 30.4-59.2 9.6-9.6 22.4-20.8 38.4-27.2 11.2-4.8 24-9.6 35.2-8-1.6-4.8-3.2-9.6-4.8-14.4-4.8-11.2-6.4-20.8-3.2-28.8s8-14.4 16-19.2c14.4-8 32-12.8 46.4-16 12.8-3.2 33.6-9.6 54.4-11.2 9.6 0 20.8 0 28.8 3.2s16 11.2 19.2 20.8c3.2 14.4 4.8 24 3.2 36.8 8 16 9.6 19.2 16 28.8 4.8 6.4 8 12.8 8 19.2 1.6 6.4 0 11.2-1.6 20.8 0 0 0 1.6 0 3.2 17.6-1.6 33.6-3.2 51.2-1.6-1.6 0-1.6-1.6-3.2-1.6-8-4.8-12.8-11.2-14.4-19.2s0-16 1.6-24c4.8-16 14.4-30.4 20.8-40 12.8-19.2 24-36.8 40-46.4s35.2-9.6 57.6 1.6c8 4.8 12.8 9.6 16 14.4s6.4 9.6 9.6 16c1.6 1.6 3.2 1.6 6.4 4.8s8 6.4 11.2 9.6 16 12.8 22.4 19.2c3.2-1.6 6.4-3.2 11.2-4.8 6.4-1.6 12.8-1.6 22.4-3.2 9.6 0 41.6-1.6 49.6-1.6 12.8 0 24 0 33.6 6.4 9.6 4.8 14.4 16 16 32 1.6 12.8 0 19.2-6.4 28.8 0 14.4-1.6 28.8-1.6 43.2 0 17.6-4.8 28.8-11.2 44.8-4.8 12.8-9.6 25.6-16 38.4 0 1.6 0 1.6 0 3.2 6.4-6.4 11.2-11.2 17.6-17.6 8-8 16-16 25.6-20.8 9.6-6.4 20.8-9.6 35.2-8 30.4 1.6 62.4 24 70.4 52.8 1.6 6.4 4.8 14.4 6.4 20.8 40-6.4 84.8-4.8 120 14.4 54.4 28.8 78.4 86.4 84.8 147.2 8 43.2 0 123.2-24 168zM921.6 648c12.8 11.2 20.8 25.6 30.4 35.2 1.6 1.6 1.6 1.6 3.2 1.6-6.4-16-19.2-27.2-33.6-36.8-3.2-1.6-6.4-4.8-9.6-6.4-1.6-1.6-4.8 0-6.4-1.6 6.4 1.6 11.2 3.2 16 8zM75.2 512c-4.8 4.8-6.4 11.2-6.4 16s3.2 11.2 6.4 17.6c3.2 6.4 9.6 12.8 14.4 17.6-3.2-11.2-1.6-20.8-3.2-28.8 0-8-1.6-14.4-11.2-22.4 1.6 0 0 0 0 0zM97.6 476.8c-6.4 0-9.6 1.6-12.8 8 0 0 0 1.6 0 1.6 1.6-1.6 1.6-1.6 1.6-3.2 3.2-3.2 8-4.8 11.2-3.2 4.8 0 9.6 1.6 14.4 4.8 1.6 1.6 3.2 3.2 6.4 3.2 0-1.6-1.6-3.2-1.6-4.8 0 0 0 0 0 0-6.4-3.2-12.8-6.4-19.2-6.4zM168 201.6c-3.2-3.2-4.8-4.8-9.6-4.8s-11.2 1.6-16 4.8c-12.8 6.4-25.6 16-30.4 22.4-11.2 12.8-19.2 27.2-20.8 38.4 0 4.8 0 6.4 0 6.4s1.6 3.2 6.4 6.4c9.6 9.6 19.2 19.2 28.8 30.4 0 0 1.6 1.6 1.6 1.6s0 0 0 1.6c11.2-33.6 27.2-67.2 46.4-96-3.2-4.8-4.8-8-6.4-11.2zM664 188.8c4.8-8 4.8-6.4 4.8-17.6-1.6-9.6-3.2-12.8-4.8-14.4-3.2 0-8 0-16 0-4.8 0-14.4 0-24 0s-20.8 0-24 0c-6.4 0-6.4 1.6-9.6 1.6 8 9.6 17.6 20.8 25.6 35.2 11.2 17.6 20.8 36.8 24 48 4.8 12.8 8 25.6 12.8 36.8 0-1.6 1.6-3.2 1.6-4.8 6.4-14.4 8-20.8 8-35.2 0-16 1.6-32 1.6-46.4-1.6 0-1.6-1.6 0-3.2zM769.6 316.8c0 0 0 1.6 0 1.6 4.8 1.6 8 4.8 11.2 8-3.2-3.2-6.4-6.4-11.2-9.6zM995.2 515.2c-4.8-48-28.8-100.8-68.8-123.2-52.8-28.8-115.2-11.2-171.2 6.4-11.2 3.2-19.2 9.6-28.8 16 0 0-1.6 1.6-3.2 1.6 4.8 3.2 12.8 6.4 17.6 8 1.6 1.6 3.2 3.2 3.2 4.8 0 3.2-3.2 6.4-6.4 6.4 0 0 0 0 0 0-6.4-1.6-16-3.2-20.8-4.8-8-1.6-14.4-3.2-17.6-8-4.8-4.8-4.8-11.2-6.4-17.6s-3.2-16-3.2-22.4v0c0-3.2 3.2-6.4 6.4-6.4 1.6 0 4.8 1.6 6.4 3.2 3.2 8 6.4 16 9.6 24 1.6 3.2 3.2 4.8 3.2 6.4 0 0 1.6 1.6 1.6 1.6s0-1.6 0-1.6c0 0 0-1.6 0-1.6 3.2-12.8 3.2-25.6 0-35.2s-6.4-24-6.4-36.8c0-6.4 1.6-12.8 4.8-19.2 1.6-1.6 1.6-1.6 3.2-3.2-8 4.8-14.4 11.2-22.4 17.6-9.6 9.6-19.2 17.6-28.8 25.6 0 0-1.6 1.6-3.2 1.6-25.6 8-44.8 17.6-68.8 35.2-1.6 1.6-3.2 1.6-4.8 1.6-3.2 0-6.4-3.2-6.4-6.4 0-1.6 1.6-3.2 1.6-4.8 16-19.2 28.8-30.4 49.6-40-3.2-32-14.4-57.6-25.6-89.6-1.6-3.2-3.2-9.6-8-17.6s-9.6-17.6-14.4-25.6c-4.8-9.6-11.2-17.6-16-24-3.2-3.2-4.8-6.4-6.4-8s-3.2-3.2-3.2-3.2c-3.2-1.6-6.4-4.8-12.8-9.6-4.8-4.8-12.8-9.6-19.2-16-6.4-4.8-14.4-11.2-19.2-16-6.4-4.8-9.6-8-11.2-8 0 0-1.6-1.6-1.6-1.6-6.4-9.6-12.8-20.8-19.2-24-12.8-6.4-20.8-3.2-30.4 3.2-9.6 8-17.6 20.8-25.6 33.6-3.2 6.4-9.6 16-12.8 27.2-1.6 4.8-3.2 9.6-1.6 12.8 0 3.2 1.6 4.8 3.2 6.4 14.4 8 24 14.4 36.8 24 1.6-3.2 4.8-6.4 6.4-8s3.2-3.2 6.4-3.2c3.2 0 6.4 3.2 6.4 6.4 0 0 0 1.6 0 1.6 0 4.8-1.6 9.6-1.6 14.4-1.6 8-1.6 14.4 0 24 0 9.6 1.6 17.6 1.6 27.2 0 0 0 0 0 0 0 3.2-3.2 6.4-6.4 6.4s-4.8-1.6-6.4-4.8c-1.6-8-8-17.6-9.6-27.2 0-1.6 0-3.2-1.6-4.8-35.2-6.4-68.8-8-102.4-1.6-1.6 12.8-4.8 25.6-6.4 35.2 0 3.2-3.2 6.4-6.4 6.4s-6.4-3.2-6.4-6.4c0 0 0 0 0 0-1.6-12.8 0-44.8 0-64 0-14.4 0-16-6.4-27.2s-9.6-14.4-19.2-33.6c0-1.6-1.6-1.6-1.6-3.2 0-11.2 1.6-19.2-1.6-28.8 0-1.6-1.6-3.2-6.4-4.8s-11.2-1.6-19.2 0-32 6.4-38.4 8c-9.6 3.2-22.4 4.8-30.4 9.6-4.8 1.6-8 4.8-9.6 8s-1.6 4.8 0 9.6c8 20.8 12.8 43.2 17.6 72 0 0 0 1.6 0 1.6 0 1.6 0 3.2-1.6 3.2-32 44.8-60.8 108.8-65.6 161.6-4.8 43.2-1.6 68.8 8 94.4 14.4 41.6 35.2 76.8 67.2 105.6 40 35.2 76.8 51.2 131.2 60.8-11.2-14.4-24-27.2-36.8-43.2-17.6-20.8-27.2-41.6-38.4-64-8-16-12.8-27.2-11.2-40 0-12.8 6.4-22.4 17.6-36.8 17.6-22.4 25.6-32 32-52.8-4.8-12.8-8-24-9.6-40 0 0 0 0 0 0 0-1.6 0-3.2 1.6-4.8 20.8-24 36.8-40 60.8-46.4 20.8-4.8 40-3.2 59.2 6.4 40 20.8 76.8 46.4 118.4 46.4 3.2 0 4.8 1.6 6.4 4.8 20.8 52.8 19.2 97.6 9.6 148.8-6.4 33.6-9.6 65.6-11.2 100.8 0 0 0 0 0 0 0 3.2-3.2 6.4-6.4 6.4s-6.4-3.2-6.4-6.4c-8-36.8-9.6-68.8-3.2-105.6 8-41.6 12.8-86.4-6.4-121.6-41.6-4.8-75.2-28.8-110.4-46.4-12.8-6.4-27.2-8-41.6-3.2-12.8 3.2-20.8 11.2-36.8 28.8 0 16 3.2 24 11.2 40 14.4 27.2 28.8 52.8 46.4 80 0 1.6 1.6 1.6 1.6 3.2 0 3.2-3.2 6.4-6.4 6.4-1.6 0-3.2-1.6-4.8-1.6-17.6-22.4-35.2-41.6-51.2-64-6.4 12.8-14.4 22.4-25.6 38.4-6.4 9.6-9.6 16-11.2 20.8 0 4.8 1.6 11.2 6.4 22.4 11.2 22.4 19.2 41.6 36.8 60.8 32 35.2 60.8 73.6 96 107.2 9.6 9.6 14.4 12.8 20.8 14.4s14.4 3.2 27.2 4.8c22.4 3.2 44.8 8 68.8 12.8 3.2 1.6 4.8 3.2 4.8 6.4s-3.2 6.4-6.4 6.4v0c-17.6-1.6-33.6-1.6-51.2-3.2 16 19.2 28.8 32 56 44.8 43.2 19.2 76.8 28.8 107.2 27.2v0c30.4-1.6 60.8-14.4 92.8-41.6 14.4-11.2 27.2-22.4 40-33.6-3.2 0-4.8-1.6-8-1.6-1.6-1.6-3.2-3.2-3.2-6.4s3.2-6.4 6.4-6.4c0 0 1.6 0 1.6 0 6.4 1.6 16 0 25.6-1.6 1.6-1.6 4.8-3.2 6.4-4.8 12.8-8 17.6-9.6 25.6-20.8 4.8-8 9.6-16 14.4-24-1.6 0-3.2 1.6-4.8 1.6-6.4 0-11.2-1.6-17.6-3.2 0 0 0 0 0 0s0 0-1.6 0c0 0 0 0 0 0s0 0 0 0c-6.4-3.2-17.6-6.4-22.4-8-3.2 0-4.8-3.2-4.8-6.4 0-1.6 1.6-4.8 3.2-6.4 3.2-1.6 6.4-1.6 9.6-1.6v0c0 0 0-1.6 0-1.6 0-4.8 1.6-9.6 3.2-14.4-1.6 0-3.2-1.6-3.2-1.6-1.6-1.6-3.2-3.2-3.2-6.4s3.2-6.4 6.4-6.4c0 0 0 0 0 0 9.6 1.6 17.6 1.6 25.6 1.6-4.8 0-8 0-12.8-1.6-17.6-4.8-27.2-12.8-32-24s-6.4-22.4-12.8-35.2c0-1.6-1.6-1.6-1.6-3.2 0-3.2 3.2-6.4 6.4-6.4 1.6 0 4.8 1.6 4.8 3.2 9.6 11.2 12.8 22.4 17.6 30.4 3.2 4.8 6.4 9.6 12.8 11.2 0 0-1.6-1.6-1.6-1.6-3.2-11.2-4.8-20.8-6.4-30.4 0-9.6-1.6-17.6-4.8-27.2 0 0 0-1.6 0-3.2 0-3.2 3.2-6.4 6.4-6.4 1.6 0 4.8 1.6 6.4 3.2 11.2 19.2 11.2 35.2 19.2 52.8 0 1.6 4.8 4.8 8 8s8 4.8 9.6 4.8c1.6-9.6 1.6-19.2 1.6-25.6-1.6-16-6.4-43.2-8-51.2 0 0 0-1.6 0-1.6 0-3.2 3.2-6.4 6.4-6.4 1.6 0 4.8 1.6 4.8 3.2 11.2 14.4 14.4 38.4 17.6 56 4.8 19.2 3.2 41.6 0 62.4 0 3.2 0 3.2 0 4.8 4.8-1.6 8-3.2 12.8-3.2 6.4-1.6 14.4-1.6 20.8 1.6 25.6 9.6 40 28.8 48 52.8 1.6-1.6 4.8-3.2 4.8-4.8 11.2-46.4 20.8-115.2 16-158.4z" />
<glyph unicode="&#xe960;" glyph-name="hbase" data-tags="hbase" d="M600 404.8c-68.8-33.6-72-22.4-72-22.4l-6.4-1.6c14.4-20.8 48-14.4 75.2-3.2 211.2 100.8 246.4-68.8 276.8-112-89.6 16-105.6-76.8-86.4-91.2 22.4 56 92.8 19.2 92.8 19.2s27.2 3.2 27.2 35.2c-9.6 48-28.8 91.2-64 144-73.6 83.2-174.4 64-243.2 32zM385.6 348.8c-24-36.8-72-32-72-32l-9.6-9.6c198.4-147.2 332.8 19.2 332.8 19.2s-100.8 33.6-155.2 51.2c-54.4 17.6-80-9.6-96-28.8zM184 577.6c0 0-19.2 14.4-17.6 40-72-32-70.4-126.4-70.4-126.4 41.6 54.4 88 86.4 88 86.4zM956.8 286.4c-3.2 332.8-294.4 398.4-412.8 412.8v0c0 0-11.2 1.6-30.4 1.6-12.8 0-20.8 0-20.8 0-33.6-1.6-35.2 182.4 0 184-89.6 0-110.4-115.2-112-208-102.4-35.2-240-121.6-364.8-326.4-16-33.6-51.2-188.8 86.4-105.6 0 1.6 1.6 1.6 1.6 3.2 9.6 4.8 27.2 9.6 60.8 14.4 38.4 6.4 73.6 22.4 104 52.8 1.6-14.4 8-40 38.4-54.4-36.8-16-105.6-16-105.6-16-12.8 0-57.6 3.2-91.2-16-33.6-22.4-72-35.2-88-28.8 0 0 25.6-14.4 96 9.6 19.2 6.4 41.6 11.2 83.2 12.8s124.8 22.4 139.2 43.2c0 0-48 19.2-52.8 44.8l1.6-1.6c0 0-4.8 27.2 16 25.6 20.8 0 52.8 4.8 70.4 33.6 11.2 16 36.8 36.8 70.4 32 35.2-16 88-19.2 152 48 70.4 57.6 203.2 84.8 275.2-64 11.2-36.8 27.2-96 27.2-96s83.2-11.2 96-105.6c-11.2 9.6-25.6 17.6-40 17.6-20.8 3.2-25.6 41.6-25.6 54.4-1.6 4.8-16 17.6-27.2 20.8l11.2-59.2c0 0-4.8-28.8 36.8-43.2 22.4-6.4 48-25.6 49.6-48 6.4-8 11.2 6.4 16 20.8 4.8 3.2 25.6 86.4-60.8 140.8zM196.8 307.2c0 0-3.2-19.2-28.8-12.8-4.8-3.2-9.6-4.8-12.8-6.4l12.8 6.4c0 1.6 8 25.6 28.8 12.8v0zM264 332.8c0 1.6 0 1.6 0 0v0 0zM297.6 364.8c-3.2-3.2-19.2-24-32-27.2 0 0 0 0 0 0s-113.6-44.8-67.2 28.8c14.4 16 27.2 24 40 30.4v0c0 0 72 28.8 76.8-9.6-14.4-3.2-14.4-17.6-17.6-22.4z" />
<glyph unicode="&#xe961;" glyph-name="hdfs" data-tags="hdfs" d="M979.2 550.4v0c19.2 0 43.2 14.4 43.2 33.6v137.6c0 19.2-22.4 43.2-43.2 43.2h-137.6c-11.2 0-22.4-9.6-28.8-17.6l-76.8 51.2v121.6c0 19.2-14.4 41.6-33.6 41.6h-137.6c-19.2 0-41.6-20.8-41.6-41.6v-137.6c0-6.4 4.8-12.8 8-19.2l-208-238.4v33.6c-16-11.2-43.2-20.8-78.4-25.6v0c-4.8 0-8-1.6-12.8-1.6-3.2 0-4.8 0-8-1.6-3.2 0-8 0-11.2-1.6-3.2 0-6.4 0-9.6 0-4.8 0-9.6 0-16-1.6-1.6 0-1.6 0-3.2 0-6.4 0-12.8 0-19.2 0-1.6 0-3.2 0-4.8 0-64 0-128 9.6-160 30.4v-257.6c1.6-6.4 17.6-14.4 38.4-20.8 28.8-8 73.6-16 131.2-16 107.2 0 152 24 152 36.8v28.8l198.4-211.2v-113.6c0-19.2 22.4-41.6 41.6-41.6h137.6c19.2 0 33.6 20.8 33.6 41.6v124.8l83.2 70.4c6.4-4.8 14.4-3.2 20.8-3.2h137.6c19.2 0 43.2 9.6 43.2 30.4v137.6c0 19.2-22.4 28.8-43.2 28.8h-46.4v158.4h51.2zM731.2 760l76.8-54.4v-70.4l-40-14.4-62.4 126.4c9.6 0 20.8 4.8 25.6 12.8zM801.6 470.4l-62.4-128-411.2 83.2 420.8 150.4 52.8-105.6zM323.2 465.6l243.2 280h99.2l68.8-137.6-409.6-145.6v3.2zM564.8 174.4c-12.8 0-22.4-6.4-28.8-14.4v0l-212.8 222.4v8l400-81.6-65.6-134.4h-92.8zM808 227.2l-78.4-64c-6.4 6.4-16 11.2-27.2 11.2v0h-4.8l62.4 126.4 48-9.6v-64zM808 360v0-32l-32 6.4 46.4 94.4 17.6-33.6c-17.6-1.6-32-16-32-35.2zM822.4 510.4l-38.4 78.4 24 8v-12.8c0-19.2 14.4-35.2 32-35.2l-17.6-38.4zM897.6 388.8v0h-19.2l-36.8 78.4 38.4 81.6h17.6v-160zM161.6 548.8c33.6 0 60.8 3.2 84.8 6.4 49.6 8 75.2 22.4 75.2 30.4s-25.6 22.4-75.2 30.4c-22.4 3.2-51.2 6.4-84.8 6.4v0c-104 0-160-24-160-36.8 0-11.2 56-36.8 160-36.8z" />
<glyph unicode="&#xe962;" glyph-name="hive-database" data-tags="hive-database" d="M963.2 723.2c-4.8-16-9.6-22.4-20.8-30.4-16-14.4-38.4-25.6-57.6-35.2-41.6-19.2-84.8-32-128-43.2-76.8-19.2-156.8-27.2-235.2-27.2s-155.2 8-232 25.6c-40 9.6-81.6 20.8-120 38.4-20.8 9.6-43.2 19.2-62.4 33.6-8 4.8-14.4 11.2-20.8 17.6-1.6 3.2-11.2 20.8-11.2 20.8 0-64 0-128 0-192 0-28.8 0-67.2 0-96 9.6-17.6 9.6-17.6 24-33.6 1.6-1.6 3.2-3.2 4.8-4.8 8-9.6 20.8-19.2 30.4-25.6 83.2-56 192-75.2 289.6-83.2 84.8-8 169.6-3.2 254.4 8 24 4.8 48 8 70.4 14.4 19.2 4.8 38.4 11.2 57.6 16 43.2 14.4 89.6 33.6 123.2 67.2 6.4 6.4 33.6 33.6 33.6 41.6 0 41.6 1.6 44.8 1.6 76.8 0 48 0 96 0 144 0 4.8 0 59.2-1.6 67.2zM420.8 368h-33.6v72h-65.6v-72h-33.6v166.4h33.6v-65.6h65.6v65.6h33.6v-166.4zM488 368h-32v120h32v-120zM488 505.6h-32v28.8h32v-28.8zM563.2 368l-48 120h33.6l22.4-60.8 6.4-20.8c1.6 4.8 3.2 8 3.2 9.6 1.6 3.2 1.6 6.4 3.2 9.6l22.4 60.8h32l-48-120h-27.2zM680 396.8c4.8-4.8 11.2-8 17.6-8 4.8 0 9.6 1.6 12.8 4.8s6.4 6.4 8 12.8l32-4.8c-4.8-11.2-11.2-20.8-19.2-27.2s-19.2-9.6-33.6-9.6c-20.8 0-36.8 6.4-46.4 20.8-8 11.2-11.2 25.6-11.2 41.6 0 19.2 4.8 35.2 16 46.4s24 17.6 40 17.6c17.6 0 32-6.4 41.6-17.6s16-30.4 14.4-54.4h-80c0-9.6 3.2-16 8-22.4zM696 467.2c-6.4 0-12.8-3.2-17.6-8s-6.4-11.2-6.4-20.8h48c0 9.6-3.2 16-6.4 20.8-4.8 4.8-11.2 8-17.6 8zM236.8 670.4c67.2-20.8 139.2-32 209.6-36.8 131.2-8 270.4 1.6 393.6 49.6 51.2 19.2 124.8 59.2 123.2 121.6-1.6 64-89.6 104-142.4 121.6-126.4 46.4-268.8 52.8-401.6 41.6-75.2-6.4-155.2-20.8-224-49.6-32-14.4-65.6-30.4-91.2-56-16-16-27.2-36.8-27.2-59.2 0-14.4 4.8-27.2 6.4-30.4 28.8-56 97.6-83.2 153.6-102.4zM83.2 772.8c0 0 0 0 0 0 1.6-1.6 1.6-1.6 0 0zM961.6 376c-1.6-1.6-1.6-6.4-3.2-8-1.6-3.2-4.8-6.4-6.4-9.6-4.8-4.8-9.6-9.6-14.4-12.8-12.8-9.6-28.8-17.6-43.2-25.6-27.2-14.4-57.6-24-86.4-33.6-62.4-17.6-126.4-28.8-192-35.2-121.6-11.2-251.2-3.2-369.6 30.4-33.6 9.6-68.8 20.8-100.8 36.8-16 8-30.4 16-44.8 27.2-4.8 4.8-11.2 8-14.4 12.8-1.6 3.2-8 17.6-9.6 19.2 0-51.2 0-104 0-155.2 0-25.6 0-51.2 0-78.4 0-24-1.6-43.2 11.2-64 24-36.8 65.6-59.2 105.6-75.2 46.4-19.2 94.4-30.4 142.4-40 89.6-16 184-19.2 275.2-11.2 49.6 4.8 99.2 11.2 147.2 22.4 46.4 11.2 94.4 27.2 134.4 51.2 19.2 11.2 36.8 25.6 51.2 43.2 14.4 19.2 17.6 38.4 17.6 62.4 0 57.6 0 116.8 0 174.4 0 12.8 0 25.6 0 38.4 1.6 4.8 0 30.4 0 30.4z" />
<glyph unicode="&#xe963;" glyph-name="hive-resource" data-tags="hive-resource" d="M236.8 630.4c0-22.4 17.6-40 40-40h472c22.4 0 40 17.6 40 40s-17.6 40-40 40h-473.6c-20.8 0-38.4-17.6-38.4-40zM209.6 801.6c0 28.8 24 52.8 52.8 52.8h499.2c28.8 0 52.8-24 52.8-52.8l36.8-236.8h78.4l-36.8 262.4c0 57.6-46.4 105.6-105.6 105.6h-550.4c-57.6 0-105.6-46.4-105.6-105.6l-36.8-262.4h78.4l36.8 236.8zM721.6 723.2c22.4 0 40 17.6 40 40s-17.6 40-40 40h-419.2c-22.4 0-40-17.6-40-40s17.6-40 40-40h419.2zM918.4 512h-812.8c-57.6 0-105.6-46.4-105.6-105.6l25.6-288c0-57.6 46.4-105.6 105.6-105.6h761.6c57.6 0 105.6 46.4 105.6 105.6l25.6 288c0 59.2-46.4 105.6-105.6 105.6zM408 184h-40v89.6h-80v-89.6h-41.6v203.2h41.6v-80h80v80h41.6v-203.2zM489.6 184h-38.4v147.2h38.4v-147.2zM489.6 352h-38.4v36.8h38.4v-36.8zM606.4 184h-35.2l-59.2 147.2h41.6l27.2-75.2 8-25.6c1.6 6.4 3.2 11.2 4.8 12.8 1.6 4.8 3.2 8 4.8 12.8l28.8 75.2h40l-60.8-147.2zM726.4 219.2c6.4-6.4 12.8-9.6 22.4-9.6 6.4 0 11.2 1.6 16 4.8s8 8 9.6 16l38.4-6.4c-4.8-14.4-12.8-25.6-24-32-11.2-8-24-11.2-40-11.2-25.6 0-44.8 8-57.6 25.6-9.6 12.8-14.4 30.4-14.4 51.2 0 24 6.4 43.2 19.2 57.6s28.8 20.8 48 20.8c22.4 0 40-8 51.2-22.4s19.2-36.8 17.6-67.2h-97.6c1.6-11.2 4.8-20.8 11.2-27.2zM747.2 305.6c-8 0-16-3.2-20.8-9.6s-8-14.4-8-25.6h57.6c0 11.2-3.2 19.2-8 25.6-6.4 6.4-12.8 9.6-20.8 9.6z" />
<glyph unicode="&#xe964;" glyph-name="hive" data-tags="hive" d="M896 440c8 41.6-11.2 64-41.6 48-27.2-14.4-38.4-12.8-38.4 4.8 0 8-16 44.8-33.6 80l-33.6 65.6 35.2 108.8-27.2 51.2c-38.4 73.6-72 99.2-129.6 99.2-36.8 0-52.8-6.4-75.2-24l-28.8-24-84.8 43.2c-72 36.8-171.2 72-206.4 72-6.4 0-32-22.4-59.2-49.6-43.2-41.6-60.8-51.2-94.4-54.4-36.8-6.4-43.2-9.6-62.4-51.2-28.8-59.2-22.4-86.4 36.8-155.2 25.6-28.8 56-72 65.6-96l19.2-43.2h52.8c28.8 0 62.4 3.2 76.8 9.6 28.8 11.2 28.8 9.6 4.8-32s-19.2-62.4 36.8-121.6c36.8-40 76.8-62.4 158.4-88 16-4.8 24-43.2 8-43.2-32 0-131.2 41.6-174.4 73.6l-52.8 38.4 9.6-43.2c9.6-38.4 16-44.8 57.6-67.2 25.6-12.8 76.8-28.8 115.2-36.8 64-12.8 86.4-27.2 76.8-43.2-8-12.8-67.2-8-129.6 11.2-73.6 22.4-75.2 22.4-46.4-1.6 68.8-56 110.4-67.2 177.6-48 24 6.4 32 6.4 36.8-6.4 3.2-9.6-1.6-20.8-11.2-27.2-22.4-16-16-16 33.6 1.6 22.4 8 41.6 14.4 43.2 14.4s3.2-16 3.2-33.6c0-28.8 3.2-33.6 20.8-30.4 19.2 3.2 22.4 8 19.2 36.8-1.6 20.8 1.6 38.4 6.4 41.6 6.4 3.2 11.2-9.6 11.2-38.4 0-40 1.6-43.2 22.4-41.6 20.8 3.2 20.8 8 22.4 100.8l3.2 97.6h-24c-22.4 0-24-3.2-24-38.4 0-22.4-3.2-36.8-9.6-32-4.8 3.2-9.6 20.8-9.6 38.4 0 25.6-3.2 32-19.2 32-17.6 0-19.2-6.4-19.2-52.8v-52.8l-30.4 3.2c-17.6 1.6-28.8 6.4-28.8 11.2 1.6 4.8-3.2 12.8-11.2 17.6-22.4 12.8-19.2 33.6 6.4 38.4 19.2 3.2 19.2 3.2-3.2 6.4-28.8 1.6-48 17.6-48 41.6 0 16 1.6 16 16 3.2 8-8 20.8-16 28.8-16 11.2 0 8 6.4-9.6 24-14.4 14.4-22.4 28.8-20.8 33.6 11.2 17.6 40 8 56-16 14.4-22.4 20.8-24 51.2-19.2 46.4 8 62.4 8 121.6 1.6 44.8-6.4 51.2-4.8 83.2 22.4 35.2 30.4 57.6 80 70.4 155.2zM488 310.4c-8-8-104 54.4-134.4 86.4-24 27.2-41.6 62.4-49.6 102.4-6.4 32-3.2 35.2 20.8 43.2 38.4 14.4 38.4 14.4 46.4-14.4 11.2-48 83.2-184 102.4-198.4 11.2-6.4 17.6-16 14.4-19.2zM643.2 283.2c-6.4-8-19.2-14.4-28.8-14.4-11.2 0-8 4.8 8 12.8 32 17.6 35.2 17.6 20.8 1.6zM716.8 283.2c-32 11.2-104 72-97.6 83.2 3.2 6.4 1.6 8-6.4 6.4s-16-9.6-17.6-17.6c-3.2-6.4 0-9.6 6.4-6.4 16 11.2 12.8-19.2-3.2-32-8-6.4-12.8-17.6-11.2-25.6 3.2-8 1.6-11.2-3.2-8-4.8 1.6-8 11.2-8 17.6s-11.2 25.6-24 43.2c-20.8 24-24 35.2-20.8 65.6 6.4 32 3.2 36.8-24 49.6-28.8 12.8-30.4 17.6-33.6 76.8l-3.2 64-35.2-8c-19.2-3.2-73.6-20.8-121.6-36.8-112-36.8-168-33.6-184 12.8-6.4 16-30.4 51.2-54.4 76.8-56 62.4-68.8 107.2-46.4 155.2 16 28.8 24 35.2 52.8 38.4 19.2 1.6 57.6-6.4 84.8-16 65.6-24 72-19.2 14.4 8l-44.8 20.8 27.2 30.4c65.6 73.6 80 76.8 184 32 89.6-36.8 188.8-91.2 222.4-120 22.4-20.8 36.8-46.4 48-84.8 11.2-33.6 22.4-56 30.4-56 11.2 0 11.2 3.2 0 16-8 8-17.6 35.2-20.8 57.6-6.4 41.6-46.4 94.4-80 107.2-11.2 4.8-11.2 9.6 8 27.2 17.6 19.2 30.4 22.4 72 20.8 44.8-1.6 52.8-4.8 80-38.4 17.6-20.8 38.4-49.6 46.4-67.2 12.8-28.8 12.8-35.2-3.2-86.4l-19.2-56 33.6-65.6c35.2-72 38.4-88 17.6-80-8 3.2-16 1.6-19.2-3.2-3.2-6.4-1.6-9.6 4.8-9.6s8-3.2 6.4-8c-3.2-4.8 0-11.2 6.4-12.8 6.4-3.2-1.6-3.2-17.6 0-20.8 3.2-32 1.6-32-4.8s8-8 17.6-4.8c14.4 6.4 16 4.8 1.6-11.2-12.8-16-12.8-17.6 8-6.4 22.4 12.8 25.6 8 11.2-19.2-6.4-11.2-6.4-17.6-1.6-17.6s14.4 16 20.8 33.6c11.2 32 27.2 44.8 27.2 24 0-14.4 22.4-11.2 43.2 4.8 17.6 12.8 17.6 12.8-6.4 8-20.8-1.6-20.8-1.6-4.8 6.4 11.2 4.8 22.4 4.8 27.2 1.6 12.8-12.8-12.8-102.4-43.2-142.4-28.8-41.6-70.4-57.6-115.2-43.2zM649.6 572.8c-8 0-19.2-4.8-22.4-11.2-11.2-16 0-19.2 20.8-3.2 16 12.8 16 14.4 1.6 14.4zM691.2 507.2c0 9.6-41.6 11.2-51.2 1.6v0c-11.2-11.2-6.4-22.4 11.2-22.4 12.8 0 12.8-1.6-3.2-8-14.4-6.4-11.2-8 17.6-6.4 24 1.6 33.6 6.4 30.4 14.4-3.2 6.4-4.8 16-4.8 20.8zM728 240l3.2-97.6c3.2-92.8 3.2-97.6 24-100.8s20.8-1.6 20.8 97.6v100.8h-48zM886.4 240c-22.4 0-24-3.2-24-38.4 0-20.8-3.2-38.4-9.6-38.4-4.8 0-9.6 11.2-9.6 22.4 0 38.4-11.2 52.8-33.6 52.8-19.2 0-22.4-3.2-19.2-20.8 9.6-43.2 33.6-171.2 33.6-176 0-1.6 11.2-3.2 25.6-1.6 24 3.2 27.2 8 38.4 54.4 6.4 28.8 14.4 72 17.6 97.6 6.4 46.4 4.8 48-19.2 48zM996.8 96c-16 0-28.8 4.8-28.8 9.6 0 6.4 6.4 9.6 14.4 9.6s14.4 8 14.4 24c0 12.8-3.2 24-9.6 24-4.8 0-9.6 6.4-9.6 14.4s8 14.4 24 14.4c19.2 0 24 4.8 24 24 0 22.4-3.2 24-51.2 24h-51.2l1.6-97.6 3.2-97.6h46.4c43.2 0 46.4 1.6 49.6 27.2 1.6 22.4-1.6 24-27.2 24z" />
<glyph unicode="&#xe965;" glyph-name="model-developed" data-tags="model-developed" d="M974.4 900.8h-924.8c-27.2 0-49.6-20.8-49.6-49.6v-795.2c0-27.2 22.4-49.6 49.6-49.6h924.8c27.2 0 49.6 22.4 49.6 49.6v795.2c0 28.8-22.4 49.6-49.6 49.6zM419.2 851.2c25.6 0 46.4-20.8 46.4-46.4s-20.8-46.4-46.4-46.4c-25.6 0-46.4 20.8-46.4 46.4 0 27.2 20.8 46.4 46.4 46.4zM280 851.2c25.6 0 46.4-20.8 46.4-46.4s-20.8-46.4-46.4-46.4c-25.6 0-46.4 20.8-46.4 46.4 0 27.2 20.8 46.4 46.4 46.4zM142.4 851.2c25.6 0 46.4-20.8 46.4-46.4s-20.8-46.4-46.4-46.4c-25.6 1.6-46.4 22.4-46.4 48s20.8 44.8 46.4 44.8zM964.8 64h-905.6v640h904v-640zM305.6 249.6l232-72c1.6 0 6.4-1.6 11.2 1.6l171.2 112c3.2 3.2 6.4 6.4 6.4 11.2v232c0 1.6 0 11.2-11.2 12.8l-233.6 54.4c-3.2 0-6.4 0-8-1.6l-169.6-75.2c-8-3.2-8-11.2-8-12.8v-249.6c0-4.8 3.2-11.2 9.6-12.8zM480 574.4l190.4-43.2-129.6-59.2-188.8 44.8 128 57.6zM323.2 392v102.4l204.8-48v-236.8l-204.8 64v118.4z" />
<glyph unicode="&#xe966;" glyph-name="mysql" data-tags="mysql" d="M990.4 328c-22.4 14.4-70.4 25.6-78.4 57.6-6.4 17.6 0 17.6 16 24 19.2 6.4 36.8 6.4 56 6.4-1.6 12.8-36.8 30.4-44.8 33.6-16 11.2-35.2 12.8-54.4 24-40 20.8-51.2 86.4-70.4 128-20.8 44.8-57.6 84.8-99.2 112-36.8 25.6-78.4 24-113.6 44.8-8 4.8-36.8 25.6-49.6 17.6-16-12.8 8-33.6 14.4-44.8 14.4-19.2 20.8-38.4 28.8-62.4 4.8-12.8 8-24 14.4-33.6 4.8-6.4 16-19.2 19.2-25.6 4.8-14.4-8-32-9.6-46.4-4.8-24-4.8-49.6 1.6-70.4 1.6-8 6.4-24 12.8-27.2 12.8-8 4.8-1.6 9.6 1.6 6.4 4.8 4.8 30.4 6.4 38.4 4.8 11.2 12.8 19.2 19.2 30.4 6.4-4.8 12.8-27.2 14.4-33.6 6.4-14.4 14.4-30.4 22.4-43.2 12.8-20.8 27.2-43.2 44.8-57.6-35.2 12.8-65.6 59.2-80 92.8-12.8-17.6 1.6-52.8-28.8-52.8-22.4 0-35.2 38.4-36.8 56-6.4 32 0 57.6 4.8 89.6 4.8 27.2-8 33.6-20.8 59.2-9.6 20.8-12.8 44.8-25.6 65.6-8 12.8-28.8 30.4-28.8 51.2 1.6 64 78.4 1.6 99.2-4.8 14.4-4.8 33.6-1.6 48-6.4 25.6-8 44.8-24 65.6-40 44.8-36.8 76.8-81.6 99.2-134.4 9.6-24 22.4-65.6 41.6-84.8 16-17.6 51.2-24 70.4-38.4 9.6-6.4 54.4-36.8 49.6-49.6-1.6-8-64-14.4-72-14.4 20.8-33.6 76.8-43.2 89.6-86.4-14.4 3.2-24 16-35.2 24v0zM649.6 675.2c-4.8 12.8-12.8 20.8-19.2 32 20.8 3.2 38.4-17.6 19.2-32v0zM409.6 364.8c44.8 0 139.2 17.6 148.8-44.8 4.8-24 0-52.8 0-76.8 0-27.2 4.8-59.2-27.2-72 14.4-12.8 28.8-25.6 43.2-38.4-14.4 0-36.8-4.8-49.6 0-14.4 4.8-22.4 25.6-35.2 32-9.6 4.8-28.8-1.6-40-1.6-22.4 0-48-1.6-68.8 4.8-51.2 14.4-41.6 68.8-41.6 110.4 3.2 48 8 83.2 70.4 86.4v0zM388.8 212.8c0-32 51.2-24 72-24-12.8 11.2-25.6 20.8-36.8 33.6 14.4 0 36.8 4.8 49.6 0 16-6.4 30.4-46.4 43.2-14.4 6.4 12.8 0 36.8 0 51.2s4.8 40 0 57.6c-8 25.6-104 32-121.6 11.2-19.2-22.4-6.4-89.6-6.4-115.2v0zM187.2 334.4c-20.8-1.6-28.8-20.8-22.4-40 8-24 41.6-17.6 62.4-17.6 48 0 107.2-17.6 84.8-81.6-16-49.6-100.8-36.8-142.4-36.8-8 0-43.2-6.4-49.6 0-8 8 0 25.6 6.4 30.4 12.8 6.4 51.2 0 65.6 0 16 0 35.2-1.6 49.6 0 20.8 1.6 36.8 19.2 27.2 43.2-8 24-40 17.6-57.6 17.6-49.6 0-110.4 14.4-89.6 81.6 14.4 44.8 83.2 33.6 120 33.6 12.8 0 59.2 8 70.4 0 8-6.4 4.8-25.6-4.8-30.4-14.4-8-56 0-72 0h-48zM480 444.8h-92.8c-8 0-36.8-4.8-41.6 0-6.4 4.8-1.6 20.8-1.6 30.4h118.4c14.4 0 36.8-1.6 44.8 14.4 6.4 19.2-4.8 17.6-16 19.2-41.6 6.4-112-19.2-140.8 24-9.6 14.4-6.4 36.8-6.4 56 0 8 6.4 56 0 62.4 40 0 43.2 8 43.2-32 0-24-9.6-70.4 14.4-81.6 12.8-6.4 92.8-11.2 100.8-1.6 9.6 8 4.8 52.8 4.8 70.4 0 30.4-9.6 56 28.8 44.8 19.2-4.8 8 4.8 14.4-8 4.8-11.2 0-32 0-44.8 0-32 1.6-65.6 0-97.6-3.2-41.6-33.6-54.4-70.4-56v0zM262.4 680c-14.4-32-28.8-65.6-43.2-97.6s-22.4-78.4-64-78.4c-40 0-49.6 44.8-62.4 75.2-14.4 33.6-30.4 68.8-44.8 102.4v-75.2c0-19.2 9.6-78.4 0-96-6.4-8-36.8-8-43.2 0-9.6 14.4 0 75.2 0 91.2 0 25.6-4.8 52.8 0 78.4 6.4 46.4 65.6 43.2 86.4 8 27.2-44.8 43.2-99.2 64-148.8 20.8 49.6 40 102.4 65.6 148.8 19.2 33.6 80 43.2 86.4-6.4 4.8-25.6 0-52.8 0-78.4 0-14.4 9.6-78.4 0-91.2-6.4-8-40-4.8-43.2 1.6-9.6 19.2 0 76.8 0 97.6-1.6 22.4-1.6 46.4-1.6 68.8v0zM628.8 211.2c0-32 68.8-20.8 89.6-20.8 12.8 0 44.8 6.4 56 0 4.8-1.6 14.4-17.6 6.4-27.2-8-11.2-75.2-1.6-91.2-1.6-36.8 0-91.2-1.6-100.8 43.2-6.4 30.4 0 68.8 0 97.6 0 14.4-6.4 43.2 0 56s1.6 8 22.4 8c20.8 0 16 4.8 22.4-8s0-40 0-56c-4.8-32-4.8-60.8-4.8-91.2v0zM852.8 224c41.6 0 41.6-64 0-65.6-41.6 0-41.6 65.6 0 65.6v0zM852.8 164.8c35.2 0 30.4 57.6-4.8 51.2-28.8-6.4-25.6-49.6 4.8-51.2v0zM867.2 198.4c0-6.4-4.8-11.2-9.6-11.2 4.8-4.8 6.4-12.8 9.6-17.6-12.8 0-9.6 14.4-19.2 17.6-4.8 0-1.6-25.6-8-14.4 0 1.6-1.6 33.6 0 36.8 6.4 6.4 27.2-3.2 27.2-11.2v0zM846.4 204.8c-6.4-27.2 30.4 6.4 0 0v0 0z" />
<glyph unicode="&#xe967;" glyph-name="oracle" data-tags="oracle" d="M684.8 806.4h-345.6c-187.2 0-339.2-153.6-339.2-340.8v-9.6c0-187.2 152-340.8 339.2-340.8h345.6c187.2 0 339.2 153.6 339.2 340.8v9.6c0 187.2-152 340.8-339.2 340.8zM916.8 465.6v-9.6c0-132.8-107.2-240-240-240h-329.6c-132.8 0-240 107.2-240 240v9.6c0 132.8 107.2 240 240 240h329.6c132.8 0 240-107.2 240-240v0zM411.2 478.4c0 17.6-16 33.6-33.6 33.6h-83.2v-99.2h19.2v81.6h62.4c9.6 0 16-6.4 16-16s-6.4-16-16-16h-54.4l57.6-49.6h27.2l-38.4 32h8c19.2 0 35.2 14.4 35.2 33.6zM233.6 512h-57.6c-27.2 0-49.6-22.4-49.6-49.6s22.4-49.6 49.6-49.6h57.6c27.2 0 49.6 22.4 49.6 49.6s-22.4 49.6-49.6 49.6zM232 430.4h-54.4c-17.6 0-32 14.4-32 32s14.4 32 32 32h54.4c17.6 0 32-14.4 32-32 1.6-17.6-14.4-32-32-32zM692.8 512h-19.2v-89.6c0-3.2 0-4.8 3.2-6.4 1.6-1.6 4.8-3.2 6.4-3.2h86.4l11.2 17.6h-89.6v81.6zM828.8 494.4h56l11.2 17.6h-68.8c-27.2 0-49.6-22.4-49.6-49.6s22.4-49.6 49.6-49.6h59.2l11.2 17.6h-68.8c-14.4 0-27.2 9.6-30.4 24h81.6l11.2 17.6h-92.8c3.2 12.8 16 22.4 30.4 22.4zM564.8 462.4c0 17.6 14.4 32 32 32h56l11.2 17.6h-68.8c-27.2 0-49.6-22.4-49.6-49.6s22.4-49.6 49.6-49.6h59.2l11.2 17.6h-68.8c-17.6 0-32 14.4-32 32zM483.2 513.6c-4.8 0-9.6-3.2-11.2-6.4l-60.8-94.4h22.4l49.6 78.4 27.2-43.2h-51.2l11.2-17.6h52.8l11.2-17.6h22.4l-60.8 94.4c-3.2 3.2-8 6.4-12.8 6.4z" />
<glyph unicode="&#xe968;" glyph-name="platform-monitoring" data-tags="platform-monitoring" d="M947.2 923.2h-870.4c-38.4 0-70.4-32-70.4-70.4v-616c0-38.4 32-70.4 70.4-70.4h385.6v-70.4h-308.8c-19.2 0-35.2-16-35.2-35.2v-27.2c0-19.2 16-35.2 35.2-35.2h716.8c19.2 0 35.2 16 35.2 35.2v27.2c0 19.2-16 35.2-35.2 35.2h-308.8v70.4h385.6c38.4 0 70.4 32 70.4 70.4v616c-1.6 38.4-32 70.4-70.4 70.4zM920 264h-816v563.2h816v-563.2zM512 284.8c144 0 259.2 116.8 259.2 259.2 0 144-116.8 259.2-259.2 259.2-144 0-259.2-116.8-259.2-259.2s115.2-259.2 259.2-259.2zM326.4 556.8c3.2 4.8 8 9.6 12.8 14.4 24 25.6 51.2 48 80 65.6 19.2 11.2 40 19.2 60.8 24 22.4 4.8 46.4 4.8 68.8-1.6 40-9.6 75.2-32 107.2-59.2 14.4-12.8 28.8-27.2 41.6-43.2 1.6-1.6 3.2-4.8 3.2-8 0 0 0 0 0 0s0 0 0 0 0 0 0 0 0 0 0 0 0 0 0 0 0 0 0 0 0 0 0 0v0c0 0 0 0 0 0s0 0 0 0 0 0 0 0 0 0 0 0 0 0 0 0c0-3.2-1.6-6.4-3.2-8-3.2-4.8-8-9.6-12.8-14.4-24-25.6-51.2-48-80-65.6-19.2-11.2-40-19.2-60.8-24-22.4-4.8-46.4-4.8-68.8 1.6-40 9.6-75.2 32-107.2 59.2-14.4 12.8-28.8 27.2-41.6 43.2-4.8 0-4.8 8 0 16zM512 472c40 0 70.4 33.6 70.4 76.8 0 41.6-32 76.8-70.4 76.8-40 0-70.4-33.6-70.4-76.8 0-41.6 30.4-76.8 70.4-76.8zM512 587.2c19.2 0 35.2-17.6 35.2-38.4s-16-38.4-35.2-38.4c-19.2 0-35.2 17.6-35.2 38.4s16 38.4 35.2 38.4z" />
<glyph unicode="&#xe969;" glyph-name="platform-resource-allocation" data-tags="platform-resource-allocation" d="M310.4 600c24-40 12.8-89.6-24-116.8-4.8-3.2-6.4-11.2-3.2-17.6l35.2-59.2c3.2-4.8 9.6-8 16-6.4 11.2 4.8 24 8 36.8 8 48 0 86.4-33.6 92.8-78.4 1.6-6.4 6.4-11.2 12.8-11.2h72c6.4 0 12.8 4.8 12.8 11.2 4.8 32 27.2 64 73.6 81.6 17.6 6.4 36.8 1.6 54.4-9.6 6.4-3.2 14.4-1.6 17.6 4.8l35.2 59.2c3.2 6.4 1.6 12.8-3.2 17.6-9.6 6.4-17.6 16-24 27.2-24 40-12.8 89.6 24 116.8 4.8 3.2 6.4 11.2 3.2 17.6l-35.2 59.2c-3.2 4.8-9.6 8-16 6.4-11.2-4.8-24-8-36.8-8-48 0-86.4 35.2-92.8 80-1.6 6.4-6.4 11.2-12.8 11.2h-72c-6.4 0-12.8-4.8-12.8-11.2-1.6-11.2-4.8-24-11.2-33.6-24-40-75.2-56-118.4-36.8-6.4 3.2-12.8 0-16-6.4l-35.2-59.2c-3.2-6.4-1.6-12.8 3.2-17.6 8-9.6 17.6-17.6 24-28.8zM512 651.2c54.4 0 99.2-43.2 99.2-96s-44.8-96-99.2-96c-54.4 0-99.2 43.2-99.2 96s44.8 96 99.2 96zM947.2 932.8h-870.4c-38.4 0-70.4-32-70.4-70.4v-616c0-38.4 32-70.4 70.4-70.4h385.6v-70.4h-308.8c-19.2 0-35.2-16-35.2-35.2v-25.6c0-19.2 16-35.2 35.2-35.2h716.8c19.2 0 35.2 16 35.2 35.2v27.2c0 19.2-16 35.2-35.2 35.2h-308.8v70.4h385.6c38.4 0 70.4 32 70.4 70.4v614.4c-1.6 38.4-32 70.4-70.4 70.4zM920 273.6h-816v563.2h816v-563.2z" />
</font>
</defs>
</svg>
